<svg xmlns="http://www.w3.org/2000/svg" width="22" height="24" viewBox="0 0 22 24" fill="none">
<path d="M1.25 11.25C1.44891 11.25 1.63962 11.3291 1.78027 11.4697C1.92093 11.6104 2 11.8011 2 12C1.99965 13.7324 2.49977 15.4284 3.43945 16.8838C4.37913 18.339 5.71896 19.4924 7.29785 20.2051C8.87679 20.9177 10.6279 21.1594 12.3408 20.9014C14.0539 20.6433 15.6561 19.8963 16.9551 18.75H13.25C13.0511 18.75 12.8604 18.6709 12.7197 18.5303C12.5791 18.3896 12.5 18.1989 12.5 18C12.5 17.8011 12.5791 17.6104 12.7197 17.4697C12.8604 17.3291 13.0511 17.25 13.25 17.25H18.5C18.6989 17.25 18.8896 17.3291 19.0303 17.4697C19.1709 17.6104 19.25 17.8011 19.25 18V23.25C19.25 23.4489 19.1709 23.6396 19.0303 23.7803C18.8896 23.9209 18.6989 24 18.5 24C18.3011 24 18.1104 23.9209 17.9697 23.7803C17.8291 23.6396 17.75 23.4489 17.75 23.25V20.04C16.2192 21.3248 14.3535 22.1461 12.3721 22.4072C10.3908 22.6683 8.37583 22.3588 6.56445 21.5146C4.75298 20.6703 3.21972 19.326 2.14551 17.6406C1.07138 15.9553 0.500543 13.9985 0.5 12C0.5 11.8011 0.579074 11.6104 0.719727 11.4697C0.860379 11.3291 1.05109 11.25 1.25 11.25ZM3.5 0C3.69891 0 3.88962 0.0790743 4.03027 0.219727C4.17093 0.360379 4.25 0.551088 4.25 0.75V3.95996C6.13578 2.36322 8.52903 1.49105 11 1.5C13.7848 1.5 16.4557 2.60606 18.4248 4.5752C20.3939 6.54433 21.5 9.21523 21.5 12C21.5 12.1989 21.4209 12.3896 21.2803 12.5303C21.1396 12.6709 20.9489 12.75 20.75 12.75C20.5511 12.75 20.3604 12.6709 20.2197 12.5303C20.0791 12.3896 20 12.1989 20 12C20.0003 10.2676 19.5002 8.57163 18.5605 7.11621C17.6209 5.66097 16.281 4.50756 14.7021 3.79492C13.1232 3.08235 11.3721 2.84057 9.65918 3.09863C7.94612 3.35673 6.34387 4.10373 5.04492 5.25H8.75C8.94891 5.25 9.13962 5.32907 9.28027 5.46973C9.42093 5.61038 9.5 5.80109 9.5 6C9.5 6.19891 9.42093 6.38962 9.28027 6.53027C9.13962 6.67093 8.94891 6.75 8.75 6.75H3.5C3.30109 6.75 3.11038 6.67093 2.96973 6.53027C2.82907 6.38962 2.75 6.19891 2.75 6V0.75C2.75 0.551088 2.82907 0.360379 2.96973 0.219727C3.11038 0.0790743 3.30109 0 3.5 0Z" fill="#008184"/>
</svg>