<svg width="15" height="11" viewBox="0 0 15 11" fill="none" xmlns="http://www.w3.org/2000/svg">
<path d="M14.2252 8.66477C14.2252 7.94409 14.2252 7.2234 14.2252 6.50391C13.3314 6.94248 12.4175 7.22459 11.4207 7.2886C12.3014 7.86467 13.2081 8.37318 14.2252 8.66477Z" fill="#00247D"/>
<path d="M14.2252 3.25071C14.2252 2.53002 14.2252 1.80934 14.2252 1.08984C13.3693 2.14835 12.4981 3.19737 11.4207 4.03895C12.4187 3.97613 13.3302 3.68928 14.2252 3.25071Z" fill="#00247D"/>
<path d="M12.8178 0.5625C11.3776 0.956031 9.85092 0.792455 8.39059 0.611099C8.39059 1.60204 8.3894 2.59179 8.3894 3.58273C9.21677 3.18683 10.0477 2.785 10.8182 2.28479C11.5625 1.80354 12.2133 1.20851 12.8178 0.5625Z" fill="#00247D"/>
<path d="M8.3855 10.3571C9.86124 10.5384 11.3891 10.6973 12.8435 10.3037C12.1323 9.9505 11.4733 9.506 10.8178 9.06031C10.0047 8.50676 9.18323 7.96388 8.38668 7.38544C8.38668 8.37519 8.38668 9.36613 8.3855 10.3571Z" fill="#00247D"/>
<path d="M0 7.28183C0 7.99895 0 8.71608 0 9.43439C0.845143 8.37826 1.73177 7.35413 2.8045 6.52084C1.80763 6.57655 0.894927 6.84325 0 7.28183Z" fill="#00247D"/>
<path d="M0 1.89975C0 2.61688 0 3.334 0 4.05231C0.894927 3.61137 1.80645 3.32926 2.8045 3.26644C1.92735 2.68444 1.03005 2.16052 0 1.89975Z" fill="#00247D"/>
<path d="M5.83347 0.211198C4.36958 0.0144326 2.84999 -0.157441 1.40625 0.242017C2.10915 0.595246 2.75872 1.04449 3.40709 1.4878C4.22023 2.04372 5.03456 2.59846 5.82754 3.18401C5.82873 2.19308 5.8311 1.20214 5.83347 0.211198Z" fill="#00247D"/>
<path d="M1.39453 9.98291C2.83827 9.61901 4.35312 9.77785 5.81227 9.9675C5.81464 8.97656 5.81701 7.98444 5.81819 6.9935C4.99439 7.38229 4.17058 7.78175 3.40604 8.27959C2.66521 8.76202 2.00616 9.34639 1.39453 9.98291Z" fill="#00247D"/>
<path d="M5.81908 6.7169C5.76219 6.70979 5.73374 6.70505 5.67684 6.69794C4.78192 7.12347 3.88699 7.56679 3.07622 8.14167C2.27731 8.70708 1.5827 9.39457 0.934326 10.1247C1.08605 10.0726 1.23896 10.0252 1.39424 9.98368C2.00587 9.34716 2.66491 8.76279 3.40575 8.28036C4.17029 7.78252 4.99409 7.38306 5.8179 6.99427C5.81909 6.88403 5.81908 6.82832 5.81908 6.7169Z" fill="white"/>
<path d="M3.32723 3.25507C2.28769 2.54269 1.2363 1.84808 0 1.53516C0 1.65606 0 1.77696 0 1.89787C1.03005 2.15864 1.92735 2.68137 2.8045 3.26456C2.97874 3.25745 3.15299 3.25507 3.32723 3.25507Z" fill="white"/>
<path d="M5.82683 3.46405C5.82683 3.35263 5.82683 3.29692 5.82802 3.18668C5.03503 2.60113 4.2207 2.04639 3.40756 1.49047C2.75919 1.04716 2.10962 0.596729 1.40672 0.2435C1.25144 0.288542 1.09854 0.338326 0.947998 0.394037C1.70661 0.710521 2.40122 1.16687 3.07804 1.62678C3.954 2.22301 4.82996 2.81804 5.68578 3.4439C5.74149 3.4522 5.76993 3.45575 5.82683 3.46405Z" fill="white"/>
<path d="M2.8045 6.52264C1.73177 7.35593 0.845143 8.38006 0 9.43738C0 9.55828 0 9.67918 0 9.80009C0.979085 8.57327 2.01862 7.3986 3.32723 6.51434C3.15299 6.51434 2.97874 6.51671 2.8045 6.52264Z" fill="white"/>
<path d="M8.3894 3.85973C8.4463 3.86684 8.47475 3.8704 8.53164 3.87751C9.43013 3.44605 10.3345 3.00392 11.1489 2.42429C11.949 1.85533 12.6329 1.15124 13.2765 0.412781C13.126 0.468491 12.9719 0.518275 12.8178 0.562133C12.2133 1.20814 11.5625 1.80199 10.8193 2.28561C10.0489 2.78582 9.21795 3.18765 8.39059 3.58355C8.3894 3.6926 8.3894 3.74831 8.3894 3.85973Z" fill="white"/>
<path d="M9.74487 3.99694C10.302 4.03606 10.8603 4.06332 11.4186 4.03962C12.496 3.19684 13.3673 2.14901 14.2231 1.09051C14.2231 0.726609 14.2231 0.363897 14.2231 0C13.5652 0.810768 12.9014 1.62628 12.1357 2.33866C11.4174 3.00719 10.609 3.53466 9.74487 3.99694Z" fill="white"/>
<path d="M8.38745 7.10809C8.38745 7.21951 8.38745 7.27404 8.38745 7.38546C9.18281 7.96509 10.0042 8.50797 10.8174 9.06034C11.4729 9.50602 12.1307 9.95052 12.8431 10.3038C12.9984 10.2599 13.1525 10.2101 13.3042 10.1556C12.5409 9.82843 11.8332 9.38749 11.1481 8.92284C10.2721 8.32899 9.38906 7.74462 8.52969 7.12706C8.47161 7.11995 8.44316 7.11639 8.38745 7.10809Z" fill="white"/>
<path d="M10.8958 7.29726C11.9377 8.00965 12.9997 8.67699 14.223 9.02785C14.223 8.90695 14.223 8.78604 14.223 8.66395C13.206 8.37355 12.2992 7.86504 11.4185 7.28778C11.2442 7.29608 11.0712 7.29845 10.8958 7.29726Z" fill="white"/>
<path d="M3.32723 6.51434C2.01862 7.3986 0.979085 8.57327 0 9.80009C0 10.0419 0 10.2849 0 10.5267C0.304631 10.3762 0.614003 10.2422 0.934043 10.1272C1.58242 9.39707 2.27703 8.70958 3.07594 8.14418C3.88671 7.56929 4.78045 7.12597 5.67656 6.70044C4.89661 6.60087 4.11311 6.52738 3.32723 6.51434Z" fill="#CF142B"/>
<path d="M8.53125 7.12891C9.39062 7.74646 10.2737 8.33083 11.1497 8.92469C11.8348 9.38934 12.5424 9.83028 13.3058 10.1574C13.6199 10.0401 13.9245 9.90614 14.2256 9.75798C14.2256 9.51617 14.2256 9.27317 14.2256 9.03137C13.0035 8.68051 11.9403 8.01316 10.8984 7.30078C10.1066 7.28893 9.31713 7.22255 8.53125 7.12891Z" fill="#CF142B"/>
<path d="M5.68367 3.44571C4.82786 2.82104 3.9519 2.22481 3.07594 1.62859C2.39911 1.16868 1.70451 0.712328 0.945896 0.395844C0.623485 0.517933 0.309372 0.657802 0 0.81071C0 1.05252 0 1.29551 0 1.53732C1.2363 1.84906 2.28769 2.54367 3.32723 3.25724C4.11548 3.27028 4.90135 3.34495 5.68367 3.44571Z" fill="#CF142B"/>
<path d="M9.74622 3.99813C10.6103 3.53585 11.4187 3.00956 12.1382 2.33985C12.9028 1.62628 13.5665 0.810768 14.2244 0C13.9138 0.151723 13.5997 0.291592 13.2761 0.412496C12.6325 1.15096 11.9486 1.85505 11.1485 2.42401C10.3341 3.00363 9.42973 3.44576 8.53125 3.87723C8.93545 3.92582 9.33965 3.96613 9.74622 3.99813Z" fill="#CF142B"/>
<path d="M0 6.63266C0 6.84839 0 7.06412 0 7.27985C0.832104 6.8721 1.69858 6.59473 2.6267 6.52835C3.68876 6.45249 4.76741 6.57577 5.8188 6.71326C5.81643 7.79666 5.81406 8.88124 5.81169 9.96463C5.98949 9.98834 6.16729 10.0132 6.3439 10.0405C6.34627 8.74018 6.34864 7.43987 6.35102 6.13838C5.20006 5.9665 4.01828 5.81478 2.85191 5.86338C1.84201 5.90724 0.904409 6.18935 0 6.63266Z" fill="white"/>
<path d="M7.8562 10.2873C8.03282 10.3122 8.20825 10.3359 8.38486 10.3585C8.38486 9.27506 8.38605 8.19285 8.38605 7.10946C9.44218 7.23984 10.5327 7.36075 11.5983 7.27777C12.5252 7.20547 13.3929 6.91269 14.2238 6.50494C14.2238 6.28802 14.2238 6.0711 14.2238 5.85419C13.3218 6.2975 12.3806 6.59621 11.3719 6.64243C10.202 6.69577 9.01309 6.55353 7.85739 6.38759C7.85739 7.6879 7.85739 8.98821 7.8562 10.2873Z" fill="white"/>
<path d="M6.36287 0.289296C6.18625 0.262034 6.00964 0.235956 5.83303 0.21225C5.83065 1.29564 5.82828 2.38022 5.82591 3.46362C4.77334 3.32375 3.68994 3.19336 2.62788 3.27634C1.6974 3.34746 0.833289 3.64023 0 4.05036C0 4.26609 0 4.48182 0 4.69755C0.904409 4.25305 1.84082 3.96027 2.85191 3.91405C4.01947 3.86189 5.20361 4.01836 6.35457 4.19141C6.35813 2.88992 6.3605 1.58961 6.36287 0.289296Z" fill="white"/>
<path d="M8.38922 3.86299C8.38922 2.7796 8.3904 1.69739 8.3904 0.613992C8.21379 0.591471 8.03717 0.566579 7.86056 0.541687C7.86056 1.842 7.85938 3.14112 7.85938 4.44143C9.01507 4.60738 10.2028 4.74962 11.3727 4.69628C12.3826 4.65005 13.3214 4.34898 14.2246 3.90685C14.2246 3.68993 14.2246 3.47302 14.2246 3.2561C13.3925 3.66385 12.526 3.96137 11.5979 4.03249C10.5335 4.1131 9.44417 3.99338 8.38922 3.86299Z" fill="white"/>
<path d="M7.85995 0.540607C7.35973 0.464746 6.8619 0.371104 6.36168 0.291687C6.35931 1.592 6.35694 2.89231 6.35457 4.1938C5.20243 4.02075 4.01828 3.86428 2.85191 3.91644C1.84082 3.96148 0.904409 4.25426 0 4.69876C0 5.34476 0 5.99195 0 6.63796C0.904409 6.19465 1.84201 5.91135 2.85191 5.86987C4.01947 5.82127 5.20006 5.97299 6.35102 6.14486C6.34865 7.44517 6.34627 8.74548 6.3439 10.047C6.84886 10.124 7.35144 10.2153 7.85639 10.29C7.85639 8.98966 7.85757 7.69054 7.85757 6.39023C9.01328 6.55499 10.2022 6.69841 11.3721 6.64507C12.3808 6.59885 13.322 6.30014 14.224 5.85683C14.224 5.20608 14.224 4.55533 14.224 3.90577C13.3208 4.34908 12.382 4.65016 11.3721 4.6952C10.2034 4.74854 9.01446 4.6063 7.85876 4.44035C7.85995 3.14004 7.85995 1.84092 7.85995 0.540607Z" fill="#CF142B"/>
</svg>
