<svg width="15" height="11" viewBox="0 0 15 11" fill="none" xmlns="http://www.w3.org/2000/svg">
<path d="M0 0.83266C0 4.06269 0 7.29273 0 10.5228C1.14503 9.97751 2.27228 9.72266 3.54178 9.76059C4.73896 9.79497 5.93378 9.9621 7.112 10.1707C8.29141 10.3805 9.48741 10.5192 10.6846 10.5453C11.9458 10.5725 13.0932 10.3189 14.224 9.75585C14.224 6.50448 14.224 3.25193 14.224 0.000556549C13.0837 0.565961 11.9541 0.821992 10.6834 0.79473C9.48622 0.768652 8.28904 0.635895 7.112 0.415423C5.93496 0.192581 4.73896 0.0361165 3.54178 0.00292718C2.2711 -0.0314475 1.12488 0.236438 0 0.83266ZM7.112 8.21847C5.54499 7.92569 3.95072 6.59101 3.95072 4.89835C3.95072 3.25548 5.52247 2.06422 7.112 2.3653C8.69798 2.66519 10.2804 3.92757 10.2816 5.65578C10.2828 7.3271 8.73354 8.52192 7.112 8.21847Z" fill="white"/>
<path d="M7.11343 2.367C8.69941 2.66689 10.2818 3.92926 10.283 5.65748C10.2842 7.32999 8.73497 8.5248 7.11343 8.22136C5.54642 7.92858 3.95215 6.59389 3.95215 4.90124C3.95096 3.25718 5.5239 2.06592 7.11343 2.367Z" fill="#BC002D"/>
</svg>
