<svg width="15" height="11" viewBox="0 0 15 11" fill="none" xmlns="http://www.w3.org/2000/svg">
<path d="M0 5.68647C1.14148 5.11751 2.26636 4.85911 3.54059 4.8923C4.73896 4.9243 5.93378 5.08076 7.112 5.29294C8.28904 5.50511 9.48622 5.64735 10.6822 5.67699C11.947 5.7078 13.0896 5.44229 14.224 4.88281C14.224 6.50909 14.224 8.13537 14.224 9.76046C13.0885 10.2974 11.9422 10.5807 10.6834 10.5487C9.48622 10.5191 8.29141 10.3733 7.112 10.1682C5.93378 9.96315 4.73896 9.80787 3.54178 9.77587C2.27465 9.74268 1.14977 10.0118 0 10.5392C0 8.92243 0 7.30445 0 5.68647Z" fill="#DC143C"/>
<path d="M0 0.828681C0.579628 0.516938 1.17822 0.252609 1.82541 0.121037C2.38963 0.00605949 2.96689 -0.0105352 3.54059 0.00487412C4.73896 0.0356928 5.93496 0.193342 7.112 0.413814C8.28785 0.633101 9.48622 0.771785 10.6822 0.801418C11.9529 0.831052 13.0908 0.583317 14.224 0.000132863C14.224 1.62641 14.224 3.25269 14.224 4.87778C13.0896 5.43844 11.947 5.70396 10.6822 5.67195C9.48504 5.64232 8.28904 5.50008 7.112 5.2879C5.93378 5.07573 4.73896 4.91927 3.54059 4.88726C2.26517 4.85407 1.14148 5.11129 0 5.68144C0 4.06464 0 2.44666 0 0.828681Z" fill="white"/>
</svg>
