<svg width="64" height="64" viewBox="0 0 64 64" fill="none" xmlns="http://www.w3.org/2000/svg">
<path d="M31.8194 56.3462C19.42 56.3462 6.04297 48.5689 6.04297 31.5032C6.04297 14.4375 19.42 6.66016 31.8194 6.66016C38.7079 6.66016 45.0631 8.92669 49.774 13.0598C54.8848 17.5929 57.5958 23.9925 57.5958 31.5032C57.5958 39.0139 54.8848 45.369 49.774 49.9021C45.0631 54.0352 38.6635 56.3462 31.8194 56.3462Z" fill="url(#paint0_radial_7719_1993)"/>
<path d="M53.1039 16.7383C55.4726 20.5603 56.7081 25.1111 56.7081 30.1731C56.7081 37.6837 53.9972 44.0389 48.8863 48.572C44.1755 52.7051 37.7758 55.0161 30.9317 55.0161C22.9055 55.0161 14.4704 51.7496 9.51953 44.8211C14.3015 52.6696 23.2921 56.3493 31.8206 56.3493C38.6646 56.3493 45.0643 54.0384 49.7752 49.9053C54.886 45.3722 57.597 39.017 57.597 31.5063C57.597 25.8444 56.0548 20.8136 53.1039 16.7383Z" fill="#EB8F00"/>
<path d="M36.5767 14.4304C36.9767 14.0749 37.3767 13.7638 37.8211 13.4527C38.2655 13.1416 38.7544 12.9194 39.1988 12.6528C40.1765 12.2083 41.2431 11.7639 42.5319 11.7195C42.843 11.675 43.1541 11.7639 43.5097 11.7639C43.8208 11.7639 44.1763 11.8972 44.4874 11.9861C44.5763 12.0306 44.6652 12.0306 44.7096 12.075L44.9318 12.2083L45.3762 12.4305C45.6429 12.6083 45.9095 12.8305 46.1762 13.0527C46.665 13.4972 46.9761 14.0749 47.2428 14.6082C47.3761 14.8748 47.465 15.1415 47.5539 15.4082C47.6428 15.6748 47.6872 15.9415 47.7317 16.1192L47.7761 16.2525C47.865 16.7859 47.5094 17.3192 46.9761 17.408C46.5317 17.4969 46.1317 17.2747 45.9095 16.9192C45.7762 16.6525 45.6429 16.4303 45.554 16.2525C45.4651 16.0748 45.3318 15.897 45.2429 15.7192C45.0207 15.4082 44.754 15.1415 44.4874 14.9193C44.4429 14.8748 44.3541 14.8304 44.2652 14.786C44.1763 14.7415 44.1318 14.6971 44.0874 14.6526C43.9985 14.6082 43.9541 14.6082 43.8652 14.5638L43.7763 14.5193C43.7319 14.5193 43.6874 14.5193 43.643 14.5193C43.3319 14.4304 43.0208 14.386 42.6653 14.4304C41.9542 14.4304 41.1098 14.6971 40.2654 15.0082C39.8654 15.1859 39.421 15.3637 39.021 15.5415C38.621 15.7637 38.1766 15.9415 37.7322 16.1192L37.6433 16.1637C37.11 16.3859 36.5323 16.1192 36.3545 15.6304C36.1323 15.1859 36.2656 14.6971 36.5767 14.4304Z" fill="#422B0D"/>
<path d="M23.8208 20.6568C23.4652 20.7457 23.243 20.7902 22.9319 20.7902C22.6653 20.7902 22.3542 20.8346 22.0875 20.7902C21.5098 20.7902 20.932 20.7013 20.3987 20.5235C19.5099 20.3013 18.621 20.168 17.8655 20.168C17.51 20.168 17.1544 20.2124 16.8878 20.3013C16.6211 20.3902 16.3989 20.5235 16.1767 20.7457C15.7323 21.1902 15.2879 21.9901 14.8435 22.7901C14.5768 23.2789 13.9546 23.4567 13.4658 23.19C13.0658 22.9678 12.888 22.5234 12.9324 22.1234C13.0213 21.6346 13.1547 21.1013 13.3324 20.568C13.5546 20.0347 13.7768 19.5014 14.2213 18.9681C14.6657 18.4348 15.2434 17.9903 15.9101 17.7681C16.5767 17.5459 17.1989 17.457 17.8211 17.457C19.021 17.5015 20.0432 17.8126 21.0209 18.1681C21.4209 18.3014 21.8209 18.4348 22.2208 18.5236C22.4431 18.5681 22.6208 18.6125 22.843 18.6125C23.0208 18.6125 23.2875 18.657 23.4208 18.657H23.5985C24.1319 18.657 24.5763 19.1458 24.5318 19.6791C24.5763 20.2124 24.2652 20.568 23.8208 20.6568Z" fill="#422B0D"/>
<path d="M23.1101 44.118C23.9101 43.2291 26.0433 42.207 29.0209 42.2514C32.9763 42.3403 35.1095 44.118 35.1095 44.118C36.3983 45.1846 35.8206 46.8289 34.4429 46.6956C32.2208 46.4289 32.3541 46.029 28.3543 45.9401C25.4656 45.8956 24.0879 46.3401 23.9545 46.3401C23.1546 46.3845 22.8435 46.0734 22.7102 45.5401C22.5768 45.0957 22.7102 44.5179 23.1101 44.118Z" fill="#422B0D"/>
<path d="M40.1316 23.0117C42.087 23.0117 43.8647 24.6561 43.8647 27.4115C43.8647 30.1669 42.087 31.8112 40.1316 31.8112C38.1761 31.8112 36.3984 30.1669 36.3984 27.4115C36.3984 24.6561 38.1761 23.0117 40.1316 23.0117Z" fill="#422B0D"/>
<path d="M20.0905 23.7695C18.224 23.7695 16.5352 25.325 16.5352 27.9471C16.5352 30.5691 18.224 32.1246 20.0905 32.1246C21.9571 32.1246 23.6459 30.5691 23.6459 27.9471C23.6459 25.325 21.9571 23.7695 20.0905 23.7695Z" fill="#422B0D"/>
<path d="M39.7222 25.0354C39.2645 24.7154 38.5756 24.8177 38.1312 25.4576C37.6868 26.102 37.8334 26.7775 38.2912 27.0975C38.749 27.4175 39.4378 27.3153 39.8822 26.6753C40.3311 26.0309 40.18 25.351 39.7222 25.0354Z" fill="#896024"/>
<path d="M50.8872 25.7305H48.3984V29.7302H50.8872C52.0871 29.7302 53.2871 28.9747 53.2871 27.8192V27.6415C53.2871 26.4415 52.0871 25.7305 50.8872 25.7305ZM50.665 29.1525C49.8206 29.1525 49.154 28.4859 49.154 27.6859C49.154 26.886 49.8206 26.2193 50.665 26.2193C51.5094 26.2193 52.176 26.886 52.176 27.6859C52.176 28.4859 51.5094 29.1525 50.665 29.1525Z" fill="#404040"/>
<path d="M50.712 35.0161C50.5786 35.0161 50.4453 34.9272 50.4453 34.7939V32.7496C50.4453 32.6162 50.5342 32.5273 50.6675 32.5273H50.712C50.8453 32.5273 50.9342 32.6162 50.9342 32.7496V34.7939C50.9342 34.8828 50.8453 35.0161 50.712 35.0161Z" fill="#404040"/>
<path d="M50.712 38.3989C50.5786 38.3989 50.4453 38.31 50.4453 38.1767V36.1324C50.4453 35.999 50.5342 35.9102 50.6675 35.9102H50.712C50.8453 35.9102 50.9342 35.999 50.9342 36.1324V38.1767C50.9342 38.31 50.8453 38.3989 50.712 38.3989Z" fill="#404040"/>
<path d="M50.712 41.8169C50.5786 41.8169 50.4453 41.728 50.4453 41.5947V39.5503C50.4453 39.417 50.5342 39.3281 50.6675 39.3281H50.712C50.8453 39.3281 50.9342 39.417 50.9342 39.5503V41.5947C50.9342 41.728 50.8453 41.8169 50.712 41.8169Z" fill="#404040"/>
<path d="M50.712 45.2387C50.5786 45.2387 50.4453 45.1499 50.4453 45.0165V42.9722C50.4453 42.8389 50.5342 42.75 50.6675 42.75H50.712C50.8453 42.75 50.9342 42.8389 50.9342 42.9722V45.0165C50.9342 45.1499 50.8453 45.2387 50.712 45.2387Z" fill="#404040"/>
<path d="M50.712 48.6645C50.5786 48.6645 50.4453 48.5756 50.4453 48.4423V46.398C50.4453 46.2647 50.5342 46.1758 50.6675 46.1758H50.712C50.8453 46.1758 50.9342 46.2647 50.9342 46.398V48.4423C50.9342 48.5756 50.8453 48.6645 50.712 48.6645Z" fill="#404040"/>
<path d="M50.712 52.0864C50.5786 52.0864 50.4453 51.9975 50.4453 51.8642V49.8199C50.4453 49.6865 50.5342 49.5977 50.6675 49.5977H50.712C50.8453 49.5977 50.9342 49.6865 50.9342 49.8199V51.8642C50.9342 51.9975 50.8453 52.0864 50.712 52.0864Z" fill="#404040"/>
<path d="M50.712 55.5044C50.5786 55.5044 50.4453 55.4155 50.4453 55.2822V53.2378C50.4453 53.1045 50.5342 53.0156 50.6675 53.0156H50.712C50.8453 53.0156 50.9342 53.1045 50.9342 53.2378V55.2822C50.9342 55.4155 50.8453 55.5044 50.712 55.5044Z" fill="#404040"/>
<path d="M50.712 31.4223C50.5786 31.4223 50.4453 31.3335 50.4453 31.2001V29.1558C50.4453 29.0225 50.5342 28.9336 50.6675 28.9336H50.712C50.8453 28.9336 50.9342 29.0225 50.9342 29.1558V31.2001C50.9342 31.289 50.8453 31.4223 50.712 31.4223Z" fill="#404040"/>
<path fill-rule="evenodd" clip-rule="evenodd" d="M50.7097 31.1046C50.1943 31.1046 49.7765 31.5224 49.7765 32.0379C49.7765 32.5533 50.1943 32.9711 50.7097 32.9711C51.2252 32.9711 51.643 32.5533 51.643 32.0379C51.643 31.5224 51.2252 31.1046 50.7097 31.1046ZM49.332 32.0379C49.332 31.277 49.9488 30.6602 50.7097 30.6602C51.4706 30.6602 52.0874 31.277 52.0874 32.0379C52.0874 32.7987 51.4706 33.4156 50.7097 33.4156C49.9488 33.4156 49.332 32.7987 49.332 32.0379Z" fill="#404040"/>
<path fill-rule="evenodd" clip-rule="evenodd" d="M50.7097 34.5343C50.1943 34.5343 49.7765 34.9521 49.7765 35.4675C49.7765 35.983 50.1943 36.4008 50.7097 36.4008C51.2252 36.4008 51.643 35.983 51.643 35.4675C51.643 34.9521 51.2252 34.5343 50.7097 34.5343ZM49.332 35.4675C49.332 34.7067 49.9488 34.0898 50.7097 34.0898C51.4706 34.0898 52.0874 34.7067 52.0874 35.4675C52.0874 36.2284 51.4706 36.8452 50.7097 36.8452C49.9488 36.8452 49.332 36.2284 49.332 35.4675Z" fill="#404040"/>
<path fill-rule="evenodd" clip-rule="evenodd" d="M50.7097 37.9093C50.1943 37.9093 49.7765 38.3271 49.7765 38.8425C49.7765 39.358 50.1943 39.7758 50.7097 39.7758C51.2252 39.7758 51.643 39.358 51.643 38.8425C51.643 38.3271 51.2252 37.9093 50.7097 37.9093ZM49.332 38.8425C49.332 38.0817 49.9488 37.4648 50.7097 37.4648C51.4706 37.4648 52.0874 38.0817 52.0874 38.8425C52.0874 39.6034 51.4706 40.2202 50.7097 40.2202C49.9488 40.2202 49.332 39.6034 49.332 38.8425Z" fill="#404040"/>
<path fill-rule="evenodd" clip-rule="evenodd" d="M50.7097 41.3272C50.1943 41.3272 49.7765 41.7451 49.7765 42.2605C49.7765 42.7759 50.1943 43.1938 50.7097 43.1938C51.2252 43.1938 51.643 42.7759 51.643 42.2605C51.643 41.7451 51.2252 41.3272 50.7097 41.3272ZM49.332 42.2605C49.332 41.4996 49.9488 40.8828 50.7097 40.8828C51.4706 40.8828 52.0874 41.4996 52.0874 42.2605C52.0874 43.0214 51.4706 43.6382 50.7097 43.6382C49.9488 43.6382 49.332 43.0214 49.332 42.2605Z" fill="#404040"/>
<path fill-rule="evenodd" clip-rule="evenodd" d="M50.7097 44.71C50.1943 44.71 49.7765 45.1279 49.7765 45.6433C49.7765 46.1588 50.1943 46.5766 50.7097 46.5766C51.2252 46.5766 51.643 46.1588 51.643 45.6433C51.643 45.1279 51.2252 44.71 50.7097 44.71ZM49.332 45.6433C49.332 44.8824 49.9488 44.2656 50.7097 44.2656C51.4706 44.2656 52.0874 44.8824 52.0874 45.6433C52.0874 46.4042 51.4706 47.021 50.7097 47.021C49.9488 47.021 49.332 46.4042 49.332 45.6433Z" fill="#404040"/>
<path fill-rule="evenodd" clip-rule="evenodd" d="M50.7097 48.128C50.1943 48.128 49.7765 48.5459 49.7765 49.0613C49.7765 49.5767 50.1943 49.9946 50.7097 49.9946C51.2252 49.9946 51.643 49.5767 51.643 49.0613C51.643 48.5459 51.2252 48.128 50.7097 48.128ZM49.332 49.0613C49.332 48.3004 49.9488 47.6836 50.7097 47.6836C51.4706 47.6836 52.0874 48.3004 52.0874 49.0613C52.0874 49.8222 51.4706 50.439 50.7097 50.439C49.9488 50.439 49.332 49.8222 49.332 49.0613Z" fill="#404040"/>
<path fill-rule="evenodd" clip-rule="evenodd" d="M50.7097 51.5069C50.1943 51.5069 49.7765 51.9248 49.7765 52.4402C49.7765 52.9556 50.1943 53.3735 50.7097 53.3735C51.2252 53.3735 51.643 52.9556 51.643 52.4402C51.643 51.9248 51.2252 51.5069 50.7097 51.5069ZM49.332 52.4402C49.332 51.6793 49.9488 51.0625 50.7097 51.0625C51.4706 51.0625 52.0874 51.6793 52.0874 52.4402C52.0874 53.2011 51.4706 53.8179 50.7097 53.8179C49.9488 53.8179 49.332 53.2011 49.332 52.4402Z" fill="#404040"/>
<path fill-rule="evenodd" clip-rule="evenodd" d="M50.7097 54.9327C50.1943 54.9327 49.7765 55.3505 49.7765 55.866C49.7765 56.3814 50.1943 56.7993 50.7097 56.7993C51.2252 56.7993 51.643 56.3814 51.643 55.866C51.643 55.3505 51.2252 54.9327 50.7097 54.9327ZM49.332 55.866C49.332 55.1051 49.9488 54.4883 50.7097 54.4883C51.4706 54.4883 52.0874 55.1051 52.0874 55.866C52.0874 56.6269 51.4706 57.2437 50.7097 57.2437C49.9488 57.2437 49.332 56.6269 49.332 55.866Z" fill="#404040"/>
<path d="M38.9324 36.5757C43.9886 36.5757 48.0875 32.4768 48.0875 27.4207C48.0875 22.3645 43.9886 18.2656 38.9324 18.2656C33.8762 18.2656 29.7773 22.3645 29.7773 27.4207C29.7773 32.4768 33.8762 36.5757 38.9324 36.5757Z" fill="#CCCCCC" fill-opacity="0.5"/>
<path fill-rule="evenodd" clip-rule="evenodd" d="M38.9328 19.0437C34.3061 19.0437 30.5555 22.7944 30.5555 27.421C30.5555 32.0477 34.3061 35.7983 38.9328 35.7983C43.5595 35.7983 47.3101 32.0477 47.3101 27.421C47.3101 22.7944 43.5595 19.0437 38.9328 19.0437ZM29 27.421C29 21.9353 33.4471 17.4883 38.9328 17.4883C44.4185 17.4883 48.8656 21.9353 48.8656 27.421C48.8656 32.9068 44.4185 37.3538 38.9328 37.3538C33.4471 37.3538 29 32.9068 29 27.421Z" fill="#404040"/>
<path d="M45.6871 26.8851C45.5093 25.1963 44.7538 23.6408 43.5094 22.5742C42.265 21.5076 40.6651 20.9299 39.0652 20.9299C37.4208 20.9299 35.8209 21.4632 34.5765 22.4854C33.3322 23.5075 32.5322 25.063 32.3989 26.7518C32.3989 26.8851 32.2656 26.974 32.1767 26.9295C32.0878 26.9295 31.9989 26.8407 31.9989 26.7073C31.9545 25.8185 32.1322 24.8852 32.4878 24.0408C32.8433 23.1964 33.3766 22.4409 34.0432 21.7743C35.3765 20.4855 37.2875 19.8633 39.1096 19.8633C40.9762 19.8633 42.7983 20.5744 44.1316 21.8632C44.7982 22.5298 45.3315 23.2853 45.6871 24.1297C46.0426 24.9741 46.1759 25.9074 46.1315 26.7962C46.1315 26.9295 46.0426 27.0184 45.9093 27.0184C45.7759 27.0629 45.6871 26.974 45.6871 26.8851Z" fill="white"/>
<path d="M20.0074 25.4964C19.5496 25.1764 18.8608 25.2786 18.4164 25.9186C17.9719 26.5585 18.1186 27.2385 18.5764 27.5585C19.0341 27.8784 19.723 27.7762 20.1674 27.1363C20.6162 26.4919 20.4696 25.8119 20.0074 25.4964Z" fill="#896024"/>
<defs>
<radialGradient id="paint0_radial_7719_1993" cx="0" cy="0" r="1" gradientUnits="userSpaceOnUse" gradientTransform="translate(31.8194 31.5031) scale(25.3141 25.314)">
<stop offset="0.5" stop-color="#FDE030"/>
<stop offset="0.9188" stop-color="#F7C02B"/>
<stop offset="1" stop-color="#F4A223"/>
</radialGradient>
</defs>
</svg>
