<svg width="48" height="48" viewBox="0 0 48 48" fill="none" xmlns="http://www.w3.org/2000/svg">
<rect x="0.5" y="0.5" width="47" height="47" rx="23.5" fill="#2C353A"/>
<rect x="0.5" y="0.5" width="47" height="47" rx="23.5" fill="white"/>
<rect x="0.5" y="0.5" width="47" height="47" rx="23.5" stroke="#C9D2D2"/>
<path d="M23.25 16.5C23.4488 16.5014 23.6392 16.5796 23.7822 16.7178L29.7822 22.7178C29.9204 22.8608 29.9985 23.0512 30 23.25V30.75C29.9994 30.9487 29.9198 31.1388 29.7793 31.2793C29.6388 31.4198 29.4487 31.4994 29.25 31.5H18.75C18.5513 31.4994 18.3612 31.4198 18.2207 31.2793C18.0802 31.1388 18.0006 30.9487 18 30.75V17.25C18.0006 17.0513 18.0802 16.8612 18.2207 16.7207C18.3612 16.5802 18.5513 16.5006 18.75 16.5H23.25ZM19.5 18V30H28.5V23.9775L23.25 24C23.0508 24.0006 22.8596 23.9221 22.7178 23.7822C22.5796 23.6392 22.5015 23.4488 22.5 23.25V18H19.5ZM21 13.5C21.1989 13.5 21.3896 13.5791 21.5303 13.7197C21.6709 13.8604 21.75 14.0511 21.75 14.25C21.75 14.4489 21.6709 14.6396 21.5303 14.7803C21.3896 14.9209 21.1989 15 21 15H16.5V27.75C16.5 27.9489 16.4209 28.1396 16.2803 28.2803C16.1396 28.4209 15.9489 28.5 15.75 28.5C15.5511 28.5 15.3604 28.4209 15.2197 28.2803C15.0791 28.1396 15 27.9489 15 27.75V14.25C15 14.0511 15.0791 13.8604 15.2197 13.7197C15.3604 13.5791 15.5511 13.5 15.75 13.5H21ZM24 22.5L27.4199 22.4775L24 19.0576V22.5Z" fill="#2C353A"/>
</svg>
