<svg width="16" height="16" viewBox="0 0 16 16" fill="none" xmlns="http://www.w3.org/2000/svg">
<path d="M4 2C2.89543 2 2 2.89543 2 4V12C2 13.1046 2.89543 14 4 14H5C5.27614 14 5.5 13.7761 5.5 13.5C5.5 13.2239 5.27614 13 5 13H4C3.44772 13 3 12.5523 3 12V4C3 3.44772 3.44772 3 4 3H9C9.55228 3 10 3.44772 10 4V5C10 5.27614 10.2239 5.5 10.5 5.5C10.7761 5.5 11 5.27614 11 5V4C11 2.89543 10.1046 2 9 2H4Z" fill="currentColor"/>
<path d="M7 6C5.89543 6 5 6.89543 5 8V12C5 13.1046 5.89543 14 7 14H12C13.1046 14 14 13.1046 14 12V8C14 6.89543 13.1046 6 12 6H7Z" fill="currentColor"/>
</svg>
