<svg width="48" height="48" viewBox="0 0 48 48" fill="none" xmlns="http://www.w3.org/2000/svg">
<rect width="48" height="48" rx="24" fill="#008184"/>
<path d="M30 23.25C30.1989 23.25 30.3896 23.3291 30.5303 23.4697C30.6709 23.6104 30.75 23.8011 30.75 24C30.7492 25.6598 30.1371 27.2612 29.0303 28.498C27.9234 29.7349 26.3995 30.5207 24.75 30.7051V33.75H27.75C27.9489 33.75 28.1396 33.8291 28.2803 33.9697C28.4209 34.1104 28.5 34.3011 28.5 34.5C28.5 34.6989 28.4209 34.8896 28.2803 35.0303C28.1396 35.1709 27.9489 35.25 27.75 35.25H20.25C20.0511 35.25 19.8604 35.1709 19.7197 35.0303C19.5791 34.8896 19.5 34.6989 19.5 34.5C19.5 34.3011 19.5791 34.1104 19.7197 33.9697C19.8604 33.8291 20.0511 33.75 20.25 33.75H23.25V30.7051C21.6005 30.5207 20.0766 29.7349 18.9697 28.498C17.8629 27.2612 17.2508 25.6598 17.25 24C17.25 23.8011 17.3291 23.6104 17.4697 23.4697C17.6104 23.3291 17.8011 23.25 18 23.25C18.1989 23.25 18.3896 23.3291 18.5303 23.4697C18.6709 23.6104 18.75 23.8011 18.75 24C18.75 25.3924 19.3035 26.7273 20.2881 27.7119C21.2727 28.6965 22.6076 29.25 24 29.25C25.3924 29.25 26.7273 28.6965 27.7119 27.7119C28.6965 26.7273 29.25 25.3924 29.25 24C29.25 23.8011 29.3291 23.6104 29.4697 23.4697C29.6104 23.3291 29.8011 23.25 30 23.25ZM24 12.75C24.4925 12.75 24.9806 12.8467 25.4355 13.0352C25.8904 13.2236 26.3032 13.5005 26.6514 13.8486C26.9995 14.1968 27.2764 14.6096 27.4648 15.0645C27.6533 15.5194 27.75 16.0075 27.75 16.5V24C27.75 24.9946 27.3546 25.9481 26.6514 26.6514C25.9481 27.3546 24.9946 27.75 24 27.75C23.0054 27.75 22.0519 27.3546 21.3486 26.6514C20.6454 25.9481 20.25 24.9946 20.25 24V16.5C20.25 15.5054 20.6454 14.5519 21.3486 13.8486C22.0519 13.1454 23.0054 12.75 24 12.75ZM24 14.25C23.4033 14.25 22.8311 14.4872 22.4092 14.9092C21.9872 15.3311 21.75 15.9033 21.75 16.5V24C21.75 24.5967 21.9872 25.1689 22.4092 25.5908C22.8311 26.0128 23.4033 26.25 24 26.25C24.5967 26.25 25.1689 26.0128 25.5908 25.5908C26.0128 25.1689 26.25 24.5967 26.25 24V21H24.75C24.5511 21 24.3604 20.9209 24.2197 20.7803C24.0791 20.6396 24 20.4489 24 20.25C24 20.0511 24.0791 19.8604 24.2197 19.7197C24.3604 19.5791 24.5511 19.5 24.75 19.5H26.25V18H24.75C24.5511 18 24.3604 17.9209 24.2197 17.7803C24.0791 17.6396 24 17.4489 24 17.25C24 17.0511 24.0791 16.8604 24.2197 16.7197C24.3604 16.5791 24.5511 16.5 24.75 16.5H26.25C26.25 15.9033 26.0128 15.3311 25.5908 14.9092C25.1689 14.4872 24.5967 14.25 24 14.25Z" fill="white"/>
</svg>
