<svg width="48" height="48" viewBox="0 0 48 48" fill="none" xmlns="http://www.w3.org/2000/svg">
<rect x="1" y="1" width="46" height="46" rx="23" fill="white"/>
<rect x="1" y="1" width="46" height="46" rx="23" stroke="#008184" stroke-width="2"/>
<path d="M21.75 17.25C21.8485 17.2499 21.9461 17.269 22.0371 17.3066C22.1281 17.3443 22.2106 17.4001 22.2803 17.4697C22.3499 17.5394 22.4057 17.6219 22.4434 17.7129C22.481 17.8039 22.5001 17.9015 22.5 18V30C22.5001 30.0985 22.481 30.1961 22.4434 30.2871C22.4057 30.3781 22.3499 30.4606 22.2803 30.5303C22.2106 30.5999 22.1281 30.6557 22.0371 30.6934C21.9461 30.731 21.8485 30.7501 21.75 30.75H18C17.9015 30.7501 17.8039 30.731 17.7129 30.6934C17.6219 30.6557 17.5394 30.5999 17.4697 30.5303C17.4001 30.4606 17.3443 30.3781 17.3066 30.2871C17.269 30.1961 17.2499 30.0985 17.25 30V18C17.2499 17.9015 17.269 17.8039 17.3066 17.7129C17.3443 17.6219 17.4001 17.5394 17.4697 17.4697C17.5394 17.4001 17.6219 17.3443 17.7129 17.3066C17.8039 17.269 17.9015 17.2499 18 17.25H21.75ZM30 17.25C30.0985 17.2499 30.1961 17.269 30.2871 17.3066C30.3781 17.3443 30.4606 17.4001 30.5303 17.4697C30.5999 17.5394 30.6557 17.6219 30.6934 17.7129C30.731 17.8039 30.7501 17.9015 30.75 18V30C30.7501 30.0985 30.731 30.1961 30.6934 30.2871C30.6557 30.3781 30.5999 30.4606 30.5303 30.5303C30.4606 30.5999 30.3781 30.6557 30.2871 30.6934C30.1961 30.731 30.0985 30.7501 30 30.75H26.25C26.1515 30.7501 26.0539 30.731 25.9629 30.6934C25.8719 30.6557 25.7894 30.5999 25.7197 30.5303C25.6501 30.4606 25.5943 30.3781 25.5566 30.2871C25.519 30.1961 25.4999 30.0985 25.5 30V18C25.4999 17.9015 25.519 17.8039 25.5566 17.7129C25.5943 17.6219 25.6501 17.5394 25.7197 17.4697C25.7894 17.4001 25.8719 17.3443 25.9629 17.3066C26.0539 17.269 26.1515 17.2499 26.25 17.25H30ZM18.75 29.25H21V18.75H18.75V29.25ZM27 29.25H29.25V18.75H27V29.25Z" fill="#008184"/>
</svg>
