<svg width="16" height="16" viewBox="0 0 16 16" fill="none" xmlns="http://www.w3.org/2000/svg">
<path d="M8 1C6.89543 1 6 1.89543 6 3V8C6 9.10457 6.89543 10 8 10C9.10457 10 10 9.10457 10 8V3C10 1.89543 9.10457 1 8 1Z" fill="currentColor"/>
<path d="M4 7C4 6.72386 3.77614 6.5 3.5 6.5C3.22386 6.5 3 6.72386 3 7V8C3 10.4853 4.71776 12.5634 7 12.9291V14.5H5.5C5.22386 14.5 5 14.7239 5 15C5 15.2761 5.22386 15.5 5.5 15.5H10.5C10.7761 15.5 11 15.2761 11 15C11 14.7239 10.7761 14.5 10.5 14.5H9V12.9291C11.2822 12.5634 13 10.4853 13 8V7C13 6.72386 12.7761 6.5 12.5 6.5C12.2239 6.5 12 6.72386 12 7V8C12 10.2091 10.2091 12 8 12C5.79086 12 4 10.2091 4 8V7Z" fill="currentColor"/>
</svg>
