<svg width="15" height="14" viewBox="0 0 15 14" fill="none" xmlns="http://www.w3.org/2000/svg">
<path d="M15 7.00227C15 8.85878 14.2625 10.6393 12.9497 11.952C11.637 13.2648 9.85652 14.0023 8 14.0023C7.86739 14.0023 7.74021 13.9496 7.64645 13.8558C7.55268 13.7621 7.5 13.6349 7.5 13.5023C7.5 13.3697 7.55268 13.2425 7.64645 13.1487C7.74021 13.0549 7.86739 13.0023 8 13.0023C9.37203 13.002 10.7025 12.5315 11.7697 11.6692C12.8369 10.8069 13.5763 9.60489 13.8647 8.26352C14.1531 6.92215 13.9731 5.52245 13.3547 4.29771C12.7362 3.07298 11.7167 2.0972 10.466 1.53301C9.21537 0.968828 7.80913 0.850317 6.48168 1.19724C5.15424 1.54415 3.98579 2.33554 3.17109 3.4395C2.35639 4.54345 1.94465 5.89328 2.0045 7.264C2.06435 8.63472 2.59218 9.94352 3.5 10.9723V8.50227C3.5 8.36966 3.55268 8.24248 3.64645 8.14871C3.74021 8.05494 3.86739 8.00227 4 8.00227C4.13261 8.00227 4.25979 8.05494 4.35355 8.14871C4.44732 8.24248 4.5 8.36966 4.5 8.50227V12.0023C4.5 12.1349 4.44732 12.2621 4.35355 12.3558C4.25979 12.4496 4.13261 12.5023 4 12.5023H0.5C0.367392 12.5023 0.240215 12.4496 0.146447 12.3558C0.0526784 12.2621 0 12.1349 0 12.0023C0 11.8697 0.0526784 11.7425 0.146447 11.6487C0.240215 11.5549 0.367392 11.5023 0.5 11.5023H2.64C1.91605 10.6404 1.41062 9.61666 1.16655 8.51787C0.92248 7.41908 0.94698 6.27763 1.23797 5.19032C1.52896 4.10302 2.07785 3.10191 2.83812 2.2719C3.59838 1.44189 4.54758 0.807449 5.60524 0.42238C6.66289 0.037311 7.79781 -0.0870314 8.91375 0.0598963C10.0297 0.206824 11.0938 0.620689 12.0157 1.2664C12.9376 1.9121 13.6903 2.77061 14.2098 3.76912C14.7293 4.76763 15.0004 5.87669 15 7.00227V7.00227Z" fill="white"/>
</svg>
