<svg width="32" height="32" viewBox="0 0 32 32" fill="none" xmlns="http://www.w3.org/2000/svg">
<path d="M10.2861 8.25259C8.95066 9.97028 8.97288 13.0234 10.6817 14.5345C12.6216 16.2499 15.3503 16.2344 17.068 14.6545C19.1257 12.7612 19.0079 9.60807 17.188 7.82372C15.357 6.02826 12.0883 5.93493 10.2861 8.25259Z" fill="#FCC11A"/>
<path d="M12.4329 7.66396C11.9041 7.42841 11.3263 8.06616 11.073 8.50391C10.8219 8.93945 10.5864 9.79496 11.1241 10.0149C11.6619 10.2327 12.0463 9.86384 12.4329 9.2261C12.8196 8.58613 13.0373 7.93283 12.4329 7.66396Z" fill="#FEE269"/>
<path d="M13.8084 5.26833C13.6795 5.50832 13.724 5.69275 13.9773 5.75275C14.2306 5.81275 15.8172 6.07051 15.9505 6.0794C16.1439 6.09051 16.2172 5.94607 16.1927 5.77719C16.1683 5.60831 15.7817 3.2351 15.7439 3.01734C15.7083 2.79957 15.4772 2.5818 15.2595 2.8729C15.0417 3.164 13.9062 5.08612 13.8084 5.26833Z" fill="#FFA722"/>
<path d="M17.9103 6.91426C17.6615 6.99203 17.6681 7.14314 17.8014 7.33868C17.9348 7.53201 18.8547 8.93638 18.9392 9.03193C19.0236 9.1297 19.168 9.15192 19.2903 9.00748C19.4125 8.86305 20.9235 6.74316 21.0324 6.61205C21.2146 6.39429 21.1057 6.16319 20.8257 6.23652C20.6169 6.29207 18.0681 6.86537 17.9103 6.91426Z" fill="#FFA722"/>
<path d="M8.47107 13.3529C8.63995 13.0751 8.85772 13.1462 9.01549 13.4129C9.12215 13.5951 10.031 14.8172 10.1177 14.9506C10.2021 15.0839 10.2376 15.3372 9.97322 15.3994C9.70656 15.4594 7.54001 16.0283 7.20225 16.0883C6.86449 16.1483 6.66895 15.8816 6.88671 15.5927C7.01337 15.4216 8.37552 13.5106 8.47107 13.3529Z" fill="#FFA722"/>
<path d="M8.01279 11.246C8.32166 11.3838 8.46832 11.3349 8.53276 11.1127C8.6172 10.8216 8.87052 9.49055 8.88385 9.18834C8.89274 8.99057 8.81052 8.80169 8.50832 8.85058C8.20611 8.89947 6.02845 9.20167 5.74846 9.29945C5.42626 9.41277 5.44848 9.76831 5.66402 9.87942C5.91734 10.0127 7.79502 11.1505 8.01279 11.246Z" fill="#FFA722"/>
<path d="M11.7756 6.16344C11.9489 6.02345 11.8956 5.82568 11.74 5.71457C11.5823 5.60569 9.63792 4.1991 9.39126 4.008C9.1735 3.83912 8.90685 3.89911 8.98017 4.28576C9.03128 4.56352 9.65125 6.99895 9.69347 7.16561C9.74236 7.35893 9.88679 7.4567 10.0557 7.33449C10.2268 7.21672 11.5956 6.30788 11.7756 6.16344Z" fill="#FFA722"/>
<path d="M23.8259 16.2567C23.8259 16.2567 24.6125 11.0415 19.915 9.80596C14.8153 8.46381 13.6198 13.1991 13.6198 13.1991C13.6198 13.1991 12.1354 12.7947 10.7644 13.8969C9.69108 14.759 9.50664 16.279 9.50664 16.279C9.50664 16.279 7.41564 16.2078 6.51791 17.65C5.66462 19.021 6.51791 19.921 6.51791 19.921L18.8595 19.4255L26.4569 19.4699C26.4569 19.4699 27.0057 18.0433 25.9502 17.0545C24.8925 16.0679 23.8259 16.2567 23.8259 16.2567Z" fill="#E2EBEE"/>
<path d="M15.3967 16.7752C15.3967 16.7752 16.3411 17.7195 18.8143 17.5618C21.2875 17.404 22.5896 16.5285 22.8829 16.393C23.1763 16.2574 23.5118 15.9441 23.6251 16.1685C23.7385 16.393 23.4896 17.0218 23.154 17.4729C22.8163 17.9218 22.6274 18.1951 22.5696 18.3951C22.5252 18.5528 23.2674 18.7773 24.6606 18.8439C25.8517 18.9017 26.6027 18.6617 26.6027 18.6617C26.6027 18.6617 26.6361 19.4106 26.345 19.995C26.0739 20.535 25.7917 20.7105 25.3428 20.8016C25.1117 20.8483 20.7497 20.8461 16.9966 20.9349C13.2434 21.0238 8.34149 21.1816 7.51042 20.9127C6.67935 20.6438 6.47492 20.1172 6.36826 19.9128C6.1816 19.5617 6.1416 19.0128 6.1416 19.0128C6.1416 19.0128 7.06155 19.475 8.36593 19.295C9.6703 19.115 10.3658 18.4417 10.5458 18.3728C10.7258 18.3062 11.5791 18.7328 12.9279 18.3951C14.8123 17.9218 15.3967 16.7752 15.3967 16.7752Z" fill="#B9CED3"/>
<path d="M12.2797 21.9792C11.9864 21.8725 10.7131 22.7858 10.2554 24.0035C9.57987 25.8012 11.9864 26.4012 12.493 24.6701C12.6864 24.0124 12.6841 22.1258 12.2797 21.9792Z" fill="#4FC2F7"/>
<path d="M21.7926 23.2897C21.5326 23.1742 20.4993 23.9608 20.0305 24.6207C19.5816 25.2518 19.1816 26.3184 20.2838 26.8651C21.486 27.4584 22.0326 26.1673 22.0837 25.2296C22.1304 24.3808 22.0215 23.3919 21.7926 23.2897Z" fill="#4FC2F7"/>
<path d="M16.5596 25.4212C16.2329 25.3434 14.9797 26.3611 14.5308 27.31C13.6308 29.2121 16.3951 29.8832 16.7373 28.0588C16.9551 26.9011 16.8262 25.4834 16.5596 25.4212Z" fill="#4FC2F7"/>
<path d="M15.3862 26.898C15.1262 26.7936 14.6196 27.4313 14.6751 27.998C14.7329 28.5646 15.1995 28.6157 15.4217 28.3024C15.7195 27.8869 15.644 27.0003 15.3862 26.898Z" fill="#AFE6F8"/>
<path d="M11.0394 23.4565C10.7928 23.3409 10.3706 24.0165 10.375 24.3653C10.3861 25.0764 10.9106 25.1231 11.155 24.772C11.3994 24.4231 11.3883 23.6209 11.0394 23.4565Z" fill="#AFE6F8"/>
<path d="M20.6282 24.8358C20.3349 24.6958 19.8304 25.3425 19.8682 25.8113C19.9349 26.6202 20.5771 26.5713 20.7926 26.1291C21.0082 25.6869 20.8926 24.9625 20.6282 24.8358Z" fill="#AFE6F8"/>
</svg>
