<svg xmlns="http://www.w3.org/2000/svg" width="19" height="19" viewBox="0 0 19 19" fill="none">
<path d="M9.5 3.50035C9.91455 3.50035 10.25 3.83616 10.25 4.25035C10.2498 4.66434 9.9144 5.00035 9.5 5.00035H2V17.0004H14V9.50035C14 9.08616 14.3355 8.75035 14.75 8.75035C15.1645 8.75035 15.5 9.08616 15.5 9.50035V17.7504C15.4998 18.1643 15.1644 18.5004 14.75 18.5004H1.25C0.835595 18.5004 0.500231 18.1643 0.5 17.7504V4.25035C0.5 3.83616 0.835452 3.50035 1.25 3.50035H9.5ZM17.2178 0.717149C17.5101 0.425006 17.9899 0.425019 18.2822 0.717149C18.5747 1.00966 18.5747 1.49007 18.2822 1.78258L15.8154 4.25035L18.2822 6.71715C18.5747 7.00966 18.5747 7.49007 18.2822 7.78258C18.1323 7.92495 17.9449 8.00035 17.75 8.00035C17.5551 8.00035 17.3677 7.92495 17.2178 7.78258L14.75 5.31481L12.2822 7.78258C12.1323 7.92495 11.9449 8.00035 11.75 8.00035C11.5551 8.00035 11.3677 7.92495 11.2178 7.78258C10.9253 7.49007 10.9253 7.00966 11.2178 6.71715L13.6855 4.25035L11.2178 1.78258C10.9253 1.49007 10.9253 1.00966 11.2178 0.717149C11.5101 0.425006 11.9899 0.42502 12.2822 0.717149L14.75 3.18492L17.2178 0.717149Z" fill="#008184"/>
</svg>