<svg xmlns="http://www.w3.org/2000/svg" width="14" height="15" viewBox="0 0 14 15" fill="none">
  <path d="M13.1875 10.25C13.3367 10.25 13.4795 10.3096 13.585 10.415C13.6904 10.5205 13.75 10.6633 13.75 10.8125V14.1875C13.75 14.3367 13.6904 14.4795 13.585 14.585C13.4795 14.6904 13.3367 14.75 13.1875 14.75H0.8125C0.663316 14.75 0.520528 14.6904 0.415039 14.585C0.30955 14.4795 0.25 14.3367 0.25 14.1875V10.8125C0.25 10.6633 0.30955 10.5205 0.415039 10.415C0.520528 10.3096 0.663316 10.25 0.8125 10.25C0.961684 10.25 1.10447 10.3096 1.20996 10.415C1.31545 10.5205 1.375 10.6633 1.375 10.8125V13.625H12.625V10.8125C12.625 10.6633 12.6846 10.5205 12.79 10.415C12.8955 10.3096 13.0383 10.25 13.1875 10.25ZM7 0.125C7.14918 0.125 7.29197 0.18455 7.39746 0.290039C7.50295 0.395528 7.5625 0.538316 7.5625 0.6875V10.0195L11.1006 6.47559C11.2065 6.36967 11.3502 6.31055 11.5 6.31055C11.6498 6.31055 11.7935 6.36967 11.8994 6.47559C12.0053 6.58151 12.0645 6.72521 12.0645 6.875C12.0645 7.02479 12.0053 7.16849 11.8994 7.27441L7.39941 11.7744C7.34723 11.827 7.28518 11.8689 7.2168 11.8975C7.14825 11.926 7.07426 11.9404 7 11.9404C6.92574 11.9404 6.85175 11.926 6.7832 11.8975C6.71482 11.8689 6.65277 11.827 6.60059 11.7744L2.10059 7.27441C2.04814 7.22197 2.0069 7.15934 1.97852 7.09082C1.95018 7.02234 1.93555 6.94911 1.93555 6.875C1.93555 6.72521 1.99467 6.58151 2.10059 6.47559C2.20651 6.36967 2.35021 6.31055 2.5 6.31055C2.64979 6.31055 2.79349 6.36967 2.89941 6.47559L6.4375 10.0195V0.6875C6.4375 0.538316 6.49705 0.395528 6.60254 0.290039C6.70803 0.18455 6.85082 0.125 7 0.125Z" fill="#2C353A"/>
</svg>