<svg xmlns="http://www.w3.org/2000/svg" width="12" height="13" viewBox="0 0 12 13" fill="currentColor">
<path d="M11.5 0.5C11.6326 0.5 11.7597 0.552716 11.8535 0.646484C11.9473 0.740253 12 0.867392 12 1V12C12 12.1326 11.9473 12.2597 11.8535 12.3535C11.7597 12.4473 11.6326 12.5 11.5 12.5H0.5C0.367392 12.5 0.240253 12.4473 0.146484 12.3535C0.0527163 12.2597 0 12.1326 0 12V1C0 0.867392 0.0527162 0.740253 0.146484 0.646484C0.240253 0.552716 0.367392 0.5 0.5 0.5H11.5ZM1 5.29004L2.14453 4.14453C2.19101 4.09767 2.24669 4.06054 2.30762 4.03516C2.36853 4.00979 2.43402 3.99707 2.5 3.99707C2.56598 3.99707 2.63147 4.00979 2.69238 4.03516C2.75331 4.06054 2.80899 4.09767 2.85547 4.14453L6.35547 7.64453C6.40233 7.69101 6.43946 7.74669 6.46484 7.80762C6.49021 7.86853 6.50293 7.93402 6.50293 8C6.50293 8.06598 6.49021 8.13147 6.46484 8.19238C6.43946 8.25331 6.40233 8.30899 6.35547 8.35547C6.30884 8.40172 6.25316 8.43801 6.19238 8.46289C6.13146 8.48777 6.0658 8.50038 6 8.5C5.86781 8.5021 5.7397 8.45212 5.64453 8.36035L2.5 5.20996L1 6.70996V11.5H8V10.5C8 10.3674 8.05272 10.2403 8.14648 10.1465C8.24025 10.0527 8.36739 10 8.5 10C8.63261 10 8.75975 10.0527 8.85352 10.1465C8.94728 10.2403 9 10.3674 9 10.5V11.5H11V1.5H1V5.29004ZM8.5 7.49707C8.56599 7.49707 8.63147 7.50979 8.69238 7.53516C8.75331 7.56054 8.80899 7.59767 8.85547 7.64453L10.3555 9.14453C10.4023 9.19101 10.4395 9.24669 10.4648 9.30762C10.4902 9.36852 10.5029 9.43402 10.5029 9.5C10.5029 9.56598 10.4902 9.63147 10.4648 9.69238C10.4395 9.75311 10.4021 9.80811 10.3555 9.85449C10.3088 9.90074 10.2532 9.93801 10.1924 9.96289C10.1315 9.98777 10.0658 10.0004 10 10C9.9342 10.0004 9.86854 9.98777 9.80762 9.96289C9.74684 9.93801 9.69116 9.90074 9.64453 9.85449L8.5 8.70508L7.35547 9.85449C7.3089 9.90106 7.25322 9.93864 7.19238 9.96387C7.13147 9.9891 7.06593 10.002 7 10.002C6.93407 10.002 6.86853 9.9891 6.80762 9.96387C6.74678 9.93864 6.6911 9.90106 6.64453 9.85449C6.59819 9.80803 6.56128 9.753 6.53613 9.69238C6.51091 9.63148 6.49805 9.56592 6.49805 9.5C6.49805 9.43407 6.5109 9.36853 6.53613 9.30762C6.56136 9.24678 6.59797 9.1911 6.64453 9.14453L8.14453 7.64453C8.19101 7.59767 8.24669 7.56054 8.30762 7.53516C8.36853 7.50979 8.43401 7.49707 8.5 7.49707ZM8.5 4.99707C8.56599 4.99707 8.63147 5.00979 8.69238 5.03516C8.75331 5.06054 8.80899 5.09767 8.85547 5.14453L9.85547 6.14453C9.90232 6.19101 9.93946 6.2467 9.96484 6.30762C9.9902 6.36852 10.0029 6.43403 10.0029 6.5C10.0029 6.56598 9.99021 6.63147 9.96484 6.69238C9.93954 6.75311 9.90211 6.80811 9.85547 6.85449C9.80884 6.90074 9.75316 6.93801 9.69238 6.96289C9.63146 6.98777 9.5658 7.00038 9.5 7C9.4342 7.00038 9.36854 6.98777 9.30762 6.96289C9.24684 6.93801 9.19116 6.90074 9.14453 6.85449L8.5 6.20508L7.85547 6.85449C7.76132 6.94864 7.63315 7.00195 7.5 7.00195C7.36685 7.00195 7.23868 6.94864 7.14453 6.85449C7.05068 6.76039 6.99805 6.63292 6.99805 6.5C6.99805 6.36686 7.05039 6.23868 7.14453 6.14453L8.14453 5.14453C8.19101 5.09767 8.24669 5.06054 8.30762 5.03516C8.36853 5.00979 8.43401 4.99707 8.5 4.99707ZM6 2.5C6.55228 2.5 7 2.94772 7 3.5C7 4.05228 6.55228 4.5 6 4.5C5.44772 4.5 5 4.05228 5 3.5C5 2.94772 5.44772 2.5 6 2.5Z" fill="currentColor"/>
</svg>