<svg width="20" height="20" viewBox="0 0 20 20" fill="none" xmlns="http://www.w3.org/2000/svg">
<path d="M8.12512 15.625C8.04286 15.6255 7.96132 15.6097 7.88517 15.5786C7.80903 15.5475 7.73977 15.5017 7.68137 15.4437L3.30637 11.0687C3.18868 10.9511 3.12256 10.7914 3.12256 10.625C3.12256 10.4586 3.18868 10.2989 3.30637 10.1812C3.42406 10.0636 3.58368 9.99744 3.75012 9.99744C3.91655 9.99744 4.07618 10.0636 4.19387 10.1812L8.12512 14.1187L16.4314 5.80624C16.5491 5.68855 16.7087 5.62244 16.8751 5.62244C17.0416 5.62244 17.2012 5.68855 17.3189 5.80624C17.4366 5.92393 17.5027 6.08356 17.5027 6.24999C17.5027 6.41643 17.4366 6.57605 17.3189 6.69374L8.56887 15.4437C8.51047 15.5017 8.44121 15.5475 8.36506 15.5786C8.28891 15.6097 8.20737 15.6255 8.12512 15.625Z" fill="#2C353A"/>
</svg>
