<svg width="16" height="16" viewBox="0 0 16 16" fill="none" xmlns="http://www.w3.org/2000/svg">
<g clip-path="url(#clip0_8138_9602)">
<path d="M0.888672 3.52394C0.888672 6.76464 0.888672 10.0053 0.888672 13.246C2.02304 12.6878 3.1657 12.4519 4.42689 12.4851C5.62645 12.5171 6.82008 12.6842 8.00067 12.8916C9.17771 13.0991 10.3749 13.2377 11.5709 13.2674C12.8451 13.2982 13.9748 13.0635 15.1127 12.4803C15.1127 9.22777 15.1127 5.97521 15.1127 2.72266C14.5082 3.02729 13.887 3.29043 13.2197 3.41726C12.6768 3.52039 12.1233 3.53461 11.5733 3.52157C10.3749 3.49194 9.17889 3.34377 8.00067 3.13397C6.82245 2.92416 5.62763 2.76177 4.43045 2.7274C3.16688 2.69184 2.01355 2.9455 0.888672 3.52394ZM3.74651 6.35333C3.49166 6.16605 3.23563 5.98114 2.97367 5.80215C2.7212 6.05581 2.4782 6.31659 2.24232 6.58566C2.33359 6.22532 2.42486 5.86497 2.51732 5.50463C2.28025 5.36002 2.04082 5.22252 1.79071 5.10162C2.08586 4.99613 2.38219 4.9096 2.68919 4.84322C2.78165 4.4888 2.87648 4.13439 2.9713 3.78116C3.06731 4.10594 3.16451 4.42954 3.26171 4.75313C3.5936 4.71994 3.92431 4.70809 4.25857 4.71165C3.97647 4.91552 3.70739 5.13125 3.44544 5.36002C3.545 5.69073 3.64576 6.02262 3.74651 6.35333ZM4.9674 3.40778C5.08594 3.4623 5.20566 3.51683 5.32419 3.57135C5.40953 3.48957 5.49606 3.40778 5.58259 3.32718C5.57074 3.44334 5.55889 3.56069 5.54703 3.67685C5.66912 3.73493 5.79003 3.79301 5.91093 3.85109C5.78291 3.86413 5.6549 3.87836 5.5257 3.89258C5.51384 4.00874 5.50199 4.12609 5.49014 4.24225C5.42376 4.13557 5.35619 4.02889 5.28981 3.92103C5.16417 3.93762 5.03971 3.9554 4.91525 3.97437C4.99704 3.89021 5.08001 3.80724 5.16417 3.72426C5.09898 3.61995 5.0326 3.51327 4.9674 3.40778ZM5.49843 7.65364C5.42731 7.54933 5.35738 7.44502 5.28626 7.33953C5.16298 7.36087 5.04089 7.38339 4.91881 7.40828C4.99704 7.32056 5.07645 7.23403 5.15587 7.14751C5.08594 7.04438 5.016 6.94126 4.94725 6.83813C5.06697 6.88792 5.18551 6.9377 5.30522 6.98867C5.38583 6.90333 5.46643 6.81798 5.54822 6.73264C5.54229 6.84999 5.53518 6.96733 5.52925 7.08587C5.65134 7.13921 5.77343 7.19255 5.89552 7.24707C5.76987 7.26604 5.64423 7.28382 5.51858 7.30397C5.51029 7.42013 5.50436 7.53629 5.49843 7.65364ZM6.21437 4.38094C6.30564 4.47695 6.39692 4.57178 6.48819 4.66779C6.60553 4.63104 6.72288 4.5943 6.84023 4.55874C6.77859 4.65475 6.71696 4.75076 6.6565 4.84796C6.74659 4.94516 6.83667 5.04117 6.92676 5.13955C6.79874 5.10162 6.67073 5.06369 6.54271 5.02694C6.48107 5.12414 6.41825 5.22015 6.35661 5.31735C6.33883 5.19763 6.31987 5.0791 6.30209 4.95938C6.1717 4.92382 6.0425 4.88945 5.91211 4.85507C6.03065 4.81595 6.14918 4.77684 6.2689 4.73891C6.24993 4.61919 6.23215 4.49947 6.21437 4.38094ZM6.77385 6.73738C6.66599 6.65678 6.55812 6.57617 6.45026 6.49557C6.34595 6.55484 6.24164 6.61529 6.13851 6.67574C6.17526 6.56669 6.212 6.45646 6.24875 6.34741C6.1397 6.26917 6.03065 6.18976 5.9216 6.11271C6.05317 6.12219 6.18474 6.13286 6.31631 6.14471C6.35306 6.03566 6.3898 5.92661 6.42655 5.81638C6.47159 5.93372 6.51545 6.04989 6.56049 6.16723C6.69088 6.18027 6.82008 6.19331 6.95047 6.20754C6.84734 6.2668 6.7454 6.32607 6.64228 6.38534C6.68495 6.50268 6.72881 6.62003 6.77385 6.73738Z" fill="#DE2910"/>
<path d="M3.26299 4.75322C3.16579 4.42963 3.06978 4.10485 2.97258 3.78125C2.87776 4.13448 2.78293 4.48889 2.69047 4.84331C2.38347 4.91087 2.08714 4.99622 1.79199 5.10171C2.0421 5.22262 2.28153 5.36011 2.5186 5.50472C2.42615 5.86507 2.33487 6.22541 2.2436 6.58575C2.47949 6.31668 2.72248 6.0559 2.97495 5.80224C3.23573 5.98123 3.49176 6.16614 3.74779 6.35342C3.64585 6.02272 3.54629 5.69201 3.44553 5.36011C3.70749 5.13134 3.97775 4.91561 4.25867 4.71174C3.92559 4.70818 3.59488 4.72003 3.26299 4.75322Z" fill="#FFDE00"/>
<path d="M5.28765 3.92198C5.35403 4.02866 5.42159 4.13534 5.48797 4.2432C5.49983 4.12704 5.51168 4.00969 5.52353 3.89353C5.65273 3.8793 5.78075 3.86508 5.90995 3.85204C5.78905 3.79396 5.66696 3.73588 5.54605 3.6778C5.55791 3.56164 5.56976 3.44429 5.58161 3.32812C5.49508 3.40873 5.40856 3.49052 5.32321 3.5723C5.20468 3.51778 5.08733 3.46325 4.9688 3.40873C5.03399 3.51422 5.10037 3.6209 5.16556 3.7264C5.08022 3.80937 4.99606 3.89234 4.91309 3.9765C5.03755 3.95635 5.16201 3.93857 5.28765 3.92198Z" fill="#FFDE00"/>
<path d="M6.30229 4.95735C6.32007 5.07707 6.33904 5.1956 6.35682 5.31532C6.41846 5.21812 6.48009 5.12211 6.54054 5.02491C6.66856 5.06166 6.79658 5.09959 6.92459 5.13752C6.83451 5.04032 6.74442 4.94312 6.65434 4.84593C6.71597 4.74992 6.77761 4.6539 6.83806 4.55671C6.72072 4.59227 6.60455 4.62901 6.4872 4.66576C6.39593 4.56975 6.30466 4.47373 6.21339 4.37891C6.23117 4.49744 6.25014 4.61597 6.26792 4.73451C6.14938 4.77244 6.02967 4.81037 5.91113 4.85067C6.0427 4.88504 6.17191 4.9206 6.30229 4.95735Z" fill="#FFDE00"/>
<path d="M6.56035 6.17117C6.51649 6.05382 6.47145 5.93766 6.42641 5.82031C6.38966 5.92936 6.35292 6.03841 6.31617 6.14865C6.18579 6.1368 6.05421 6.12731 5.92383 6.11665C6.03288 6.19369 6.14074 6.27192 6.24861 6.35016C6.21186 6.45921 6.17512 6.56944 6.13837 6.67849C6.2415 6.61804 6.34581 6.55759 6.45012 6.49832C6.55798 6.57774 6.66585 6.65716 6.77371 6.73776C6.72985 6.62041 6.686 6.50306 6.64095 6.3869C6.74408 6.32882 6.84602 6.26955 6.94914 6.21147C6.81994 6.19725 6.69074 6.18302 6.56035 6.17117Z" fill="#FFDE00"/>
<path d="M5.52981 7.0837C5.53574 6.96635 5.54285 6.849 5.54878 6.73047C5.46699 6.81463 5.38638 6.89997 5.30578 6.9865C5.18725 6.93672 5.06753 6.88693 4.94781 6.83833C5.01775 6.94146 5.08768 7.04458 5.15643 7.14771C5.07583 7.23424 4.99641 7.32076 4.91699 7.40848C5.04027 7.38359 5.16354 7.36107 5.28682 7.33973C5.35675 7.44404 5.42669 7.54835 5.49781 7.65384C5.50373 7.5365 5.51084 7.41915 5.51677 7.30298C5.6436 7.28283 5.76925 7.26387 5.89608 7.24609C5.77399 7.19038 5.6519 7.13704 5.52981 7.0837Z" fill="#FFDE00"/>
<g opacity="0.3">
<path d="M3.96698 3.07826C5.48302 3.07826 6.61857 3.26672 7.82169 3.46705C9.05206 3.67092 10.3251 3.8831 12.0427 3.8831C12.5689 3.8831 13.1095 3.81079 13.6476 3.66855C14.0091 3.57254 14.3813 3.44334 14.7571 3.28095V12.2563C14.3209 12.4625 13.8859 12.6214 13.4627 12.7304C12.9826 12.8537 12.5014 12.9165 12.0308 12.9165C10.3702 12.9165 9.14333 12.7174 7.95681 12.5254C6.78452 12.3345 5.57074 12.1378 3.96698 12.1378C3.42529 12.1378 2.88714 12.2006 2.3656 12.325C1.99103 12.4139 1.61528 12.536 1.24427 12.6913V3.74916C1.68403 3.54054 2.11905 3.37933 2.53866 3.2691C3.02109 3.14226 3.50115 3.07826 3.96698 3.07826ZM15.1127 2.72266C14.0554 3.25606 13.0455 3.5275 12.0427 3.5275C8.71543 3.5275 7.10337 2.72266 3.96698 2.72266C2.96538 2.72266 1.9448 2.99528 0.888672 3.5275C0.888672 6.40075 0.888672 10.374 0.888672 13.2472C1.94362 12.715 2.96538 12.4934 3.96698 12.4934C7.15434 12.4934 8.69054 13.2721 12.0308 13.2721C13.0336 13.2721 14.0554 13.0113 15.1127 12.4791C15.1127 9.60589 15.1127 5.5959 15.1127 2.72266Z" fill="#212121"/>
</g>
</g>
<defs>
<clipPath id="clip0_8138_9602">
<rect width="16" height="16" fill="white"/>
</clipPath>
</defs>
</svg>
