<svg width="16" height="16" viewBox="0 0 16 16" fill="none" xmlns="http://www.w3.org/2000/svg">
<path d="M15.1138 11.3888C15.1138 10.6681 15.1138 9.9474 15.1138 9.22791C14.2201 9.66648 13.3062 9.94859 12.3093 10.0126C13.19 10.5887 14.0968 11.0972 15.1138 11.3888Z" fill="#2C353A"/>
<path d="M15.1138 5.97471C15.1138 5.25402 15.1138 4.53334 15.1138 3.81384C14.258 4.87235 13.3868 5.92137 12.3093 6.76295C13.3074 6.70013 14.2189 6.41328 15.1138 5.97471Z" fill="#00247D"/>
<path d="M13.7065 3.2865C12.2663 3.68003 10.7396 3.51645 9.27926 3.3351C9.27926 4.32604 9.27808 5.31579 9.27808 6.30673C10.1054 5.91083 10.9364 5.509 11.7068 5.00879C12.4512 4.52754 13.102 3.93251 13.7065 3.2865Z" fill="#00247D"/>
<path d="M9.27417 13.081C10.7499 13.2624 12.2778 13.4212 13.7322 13.0277C13.021 12.6744 12.362 12.2299 11.7065 11.7843C10.8933 11.2307 10.0719 10.6878 9.27535 10.1094C9.27535 11.0991 9.27536 12.0901 9.27417 13.081Z" fill="#00247D"/>
<path d="M0.888672 10.0058C0.888672 10.7229 0.888672 11.44 0.888672 12.1584C1.73381 11.1022 2.62044 10.0781 3.69317 9.24481C2.69631 9.30052 1.7836 9.56722 0.888672 10.0058Z" fill="#00247D"/>
<path d="M0.888672 4.62372C0.888672 5.34084 0.888672 6.05797 0.888672 6.77628C1.7836 6.33534 2.69512 6.05323 3.69317 5.99041C2.81602 5.40841 1.91873 4.88449 0.888672 4.62372Z" fill="#00247D"/>
<path d="M6.72214 2.9352C5.25826 2.73843 3.73866 2.56656 2.29492 2.96602C2.99782 3.31925 3.64739 3.76849 4.29576 4.2118C5.1089 4.76772 5.92323 5.32246 6.71622 5.90801C6.7174 4.91707 6.71977 3.92614 6.72214 2.9352Z" fill="#00247D"/>
<path d="M2.2832 12.7069C3.72694 12.343 5.24179 12.5018 6.70094 12.6915C6.70331 11.7005 6.70568 10.7084 6.70687 9.71747C5.88306 10.1063 5.05925 10.5057 4.29471 11.0036C3.55388 11.486 2.89484 12.0704 2.2832 12.7069Z" fill="#00247D"/>
<path d="M6.70776 9.44084C6.65086 9.43373 6.62241 9.42899 6.56552 9.42188C5.67059 9.84741 4.77566 10.2907 3.9649 10.8656C3.16598 11.431 2.47138 12.1185 1.823 12.8487C1.97472 12.7965 2.12763 12.7491 2.28291 12.7076C2.89454 12.0711 3.55358 11.4867 4.29442 11.0043C5.05896 10.5065 5.88276 10.107 6.70657 9.71821C6.70776 9.60797 6.70776 9.55226 6.70776 9.44084Z" fill="white"/>
<path d="M4.2159 5.97907C3.17637 5.26669 2.12497 4.57208 0.888672 4.25916C0.888672 4.38006 0.888672 4.50096 0.888672 4.62187C1.91873 4.88264 2.81602 5.40537 3.69317 5.98856C3.86741 5.98144 4.04166 5.97907 4.2159 5.97907Z" fill="white"/>
<path d="M6.7155 6.18802C6.7155 6.0766 6.7155 6.02089 6.71669 5.91065C5.9237 5.3251 5.10938 4.77036 4.29624 4.21444C3.64786 3.77112 2.9983 3.3207 2.29539 2.96747C2.14012 3.01251 1.98721 3.06229 1.83667 3.11801C2.59528 3.43449 3.28989 3.89084 3.96671 4.35075C4.84268 4.94698 5.71864 5.54201 6.57445 6.16787C6.63016 6.17617 6.65861 6.17972 6.7155 6.18802Z" fill="white"/>
<path d="M3.69317 9.24658C2.62044 10.0799 1.73381 11.104 0.888672 12.1613C0.888672 12.2822 0.888672 12.4031 0.888672 12.524C1.86776 11.2972 2.90729 10.1225 4.2159 9.23828C4.04166 9.23828 3.86741 9.24065 3.69317 9.24658Z" fill="white"/>
<path d="M9.27808 6.58367C9.33497 6.59078 9.36342 6.59434 9.42032 6.60145C10.3188 6.16999 11.2232 5.72786 12.0375 5.14823C12.8376 4.57927 13.5216 3.87518 14.1652 3.13672C14.0147 3.19243 13.8606 3.24221 13.7065 3.28607C13.102 3.93208 12.4512 4.52593 11.708 5.00955C10.9375 5.50976 10.1066 5.91158 9.27926 6.30749C9.27808 6.41654 9.27808 6.47225 9.27808 6.58367Z" fill="white"/>
<path d="M10.6335 6.72094C11.1907 6.76006 11.7489 6.78732 12.3072 6.76362C13.3847 5.92084 14.2559 4.87301 15.1117 3.81451C15.1117 3.45061 15.1117 3.0879 15.1117 2.724C14.4539 3.53477 13.7901 4.35028 13.0244 5.06266C12.3061 5.73119 11.4977 6.25866 10.6335 6.72094Z" fill="white"/>
<path d="M9.27612 9.83203C9.27612 9.94345 9.27612 9.99798 9.27612 10.1094C10.0715 10.689 10.8929 11.2319 11.7061 11.7843C12.3615 12.23 13.0194 12.6745 13.7318 13.0277C13.8871 12.9838 14.0412 12.934 14.1929 12.8795C13.4295 12.5524 12.7219 12.1114 12.0368 11.6468C11.1608 11.0529 10.2777 10.4686 9.41836 9.851C9.36028 9.84388 9.33183 9.84033 9.27612 9.83203Z" fill="white"/>
<path d="M11.7844 10.0212C12.8263 10.7336 13.8884 11.4009 15.1117 11.7518C15.1117 11.6309 15.1117 11.51 15.1117 11.3879C14.0946 11.0975 13.1879 10.589 12.3072 10.0117C12.1329 10.02 11.9599 10.0224 11.7844 10.0212Z" fill="white"/>
<path d="M4.2159 9.23828C2.90729 10.1225 1.86776 11.2972 0.888672 12.524C0.888672 12.7658 0.888672 13.0088 0.888672 13.2506C1.1933 13.1001 1.50267 12.9662 1.82271 12.8512C2.47109 12.121 3.1657 11.4335 3.96461 10.8681C4.77538 10.2932 5.66912 9.84991 6.56523 9.42438C5.78528 9.32481 5.00178 9.25132 4.2159 9.23828Z" fill="#CF142B"/>
<path d="M9.41992 9.85291C10.2793 10.4705 11.1624 11.0548 12.0383 11.6487C12.7234 12.1133 13.4311 12.5543 14.1944 12.8814C14.5086 12.7641 14.8132 12.6301 15.1143 12.482C15.1143 12.2402 15.1143 11.9972 15.1143 11.7554C13.8922 11.4045 12.8289 10.7372 11.787 10.0248C10.9952 10.0129 10.2058 9.94655 9.41992 9.85291Z" fill="#CF142B"/>
<path d="M6.57235 6.16967C5.71653 5.545 4.84057 4.94878 3.96461 4.35256C3.28779 3.89265 2.59318 3.4363 1.83457 3.11981C1.51216 3.2419 1.19804 3.38177 0.888672 3.53468C0.888672 3.77649 0.888672 4.01948 0.888672 4.26129C2.12497 4.57303 3.17637 5.26764 4.2159 5.98121C5.00415 5.99425 5.79003 6.06892 6.57235 6.16967Z" fill="#CF142B"/>
<path d="M10.6349 6.72213C11.499 6.25985 12.3074 5.73356 13.0269 5.06385C13.7914 4.35028 14.4552 3.53477 15.1131 2.724C14.8025 2.87572 14.4884 3.01559 14.1648 3.1365C13.5212 3.87496 12.8372 4.57905 12.0371 5.14801C11.2228 5.72763 10.3184 6.16976 9.41992 6.60122C9.82412 6.64982 10.2283 6.69012 10.6349 6.72213Z" fill="#CF142B"/>
<path d="M0.888672 9.3566C0.888672 9.57233 0.888672 9.78806 0.888672 10.0038C1.72078 9.59604 2.58725 9.31867 3.51537 9.25229C4.57743 9.17643 5.65608 9.2997 6.70747 9.4372C6.7051 10.5206 6.70273 11.6052 6.70036 12.6886C6.87816 12.7123 7.05596 12.7372 7.23258 12.7644C7.23495 11.4641 7.23732 10.1638 7.23969 8.86232C6.08873 8.69044 4.90695 8.53872 3.74058 8.58732C2.73068 8.63118 1.79308 8.91329 0.888672 9.3566Z" fill="white"/>
<path d="M8.74487 13.0113C8.92149 13.0362 9.09692 13.0599 9.27353 13.0824C9.27353 11.999 9.27472 10.9168 9.27472 9.83339C10.3308 9.96378 11.4214 10.0847 12.487 10.0017C13.4139 9.92941 14.2816 9.63663 15.1125 9.22887C15.1125 9.01196 15.1125 8.79504 15.1125 8.57812C14.2104 9.02144 13.2693 9.32014 12.2606 9.36637C11.0906 9.41971 9.90176 9.27747 8.74606 9.11152C8.74606 10.4118 8.74606 11.7121 8.74487 13.0113Z" fill="white"/>
<path d="M7.25154 3.01326C7.07493 2.986 6.89831 2.95992 6.7217 2.93622C6.71933 4.01961 6.71696 5.10419 6.71459 6.18759C5.66201 6.04772 4.57861 5.91733 3.51656 6.0003C2.58607 6.07142 1.72196 6.3642 0.888672 6.77433C0.888672 6.99006 0.888672 7.20579 0.888672 7.42152C1.79308 6.97702 2.72949 6.68424 3.74058 6.63801C4.90814 6.58586 6.09229 6.74232 7.24324 6.91538C7.2468 5.61389 7.24917 4.31358 7.25154 3.01326Z" fill="white"/>
<path d="M9.27789 6.58693C9.27789 5.50353 9.27908 4.42132 9.27908 3.33793C9.10246 3.31541 8.92585 3.29052 8.74923 3.26562C8.74923 4.56594 8.74805 5.86506 8.74805 7.16537C9.90375 7.33132 11.0915 7.47356 12.2614 7.42022C13.2713 7.37399 14.2101 7.07292 15.1133 6.63079C15.1133 6.41387 15.1133 6.19695 15.1133 5.98004C14.2812 6.38779 13.4147 6.68531 12.4866 6.75643C11.4222 6.83703 10.3328 6.71732 9.27789 6.58693Z" fill="white"/>
<path d="M8.74862 3.26454C8.24841 3.18868 7.75057 3.09504 7.25036 3.01562C7.24799 4.31594 7.24561 5.61625 7.24324 6.91774C6.0911 6.74468 4.90695 6.58822 3.74058 6.64037C2.72949 6.68542 1.79308 6.97819 0.888672 7.42269C0.888672 8.0687 0.888672 8.71589 0.888672 9.3619C1.79308 8.91858 2.73068 8.63529 3.74058 8.5938C4.90814 8.5452 6.08873 8.69693 7.23969 8.8688C7.23732 10.1691 7.23495 11.4694 7.23258 12.7709C7.73753 12.848 8.24011 12.9392 8.74506 13.0139C8.74506 11.7136 8.74625 10.4145 8.74625 9.11416C9.90195 9.27893 11.0908 9.42235 12.2608 9.36901C13.2695 9.32278 14.2106 9.02408 15.1127 8.58077C15.1127 7.93002 15.1127 7.27927 15.1127 6.62971C14.2094 7.07302 13.2707 7.3741 12.2608 7.41914C11.092 7.47248 9.90313 7.33024 8.74743 7.16429C8.74862 5.86398 8.74862 4.56486 8.74862 3.26454Z" fill="#CF142B"/>
<g opacity="0.3">
<path d="M3.96698 3.0796C5.48302 3.0796 6.61857 3.26807 7.82169 3.46839C9.05206 3.67227 10.3251 3.88444 12.0427 3.88444C12.5689 3.88444 13.1095 3.81214 13.6476 3.6699C14.0091 3.57388 14.3813 3.44468 14.7571 3.28229V12.2576C14.3209 12.4639 13.8859 12.6227 13.4627 12.7318C12.9826 12.855 12.5014 12.9179 12.0308 12.9179C10.3702 12.9179 9.14333 12.7187 7.95681 12.5267C6.78452 12.3359 5.57074 12.1391 3.96698 12.1391C3.42529 12.1391 2.88714 12.2019 2.3656 12.3264C1.99103 12.4153 1.61528 12.5374 1.24427 12.6927V3.7505C1.68403 3.54188 2.11905 3.38067 2.53866 3.27044C3.02109 3.14361 3.50115 3.0796 3.96698 3.0796ZM15.1127 2.724C14.0554 3.2574 13.0455 3.52884 12.0427 3.52884C8.71543 3.52884 7.10337 2.724 3.96698 2.724C2.96538 2.724 1.9448 2.99663 0.888672 3.52884C0.888672 6.40209 0.888672 10.3753 0.888672 13.2486C1.94362 12.7164 2.96538 12.4947 3.96698 12.4947C7.15434 12.4947 8.69054 13.2735 12.0308 13.2735C13.0336 13.2735 14.0554 13.0127 15.1127 12.4805C15.1127 9.60723 15.1127 5.59725 15.1127 2.724Z" fill="#212121"/>
</g>
</svg>
