<svg xmlns="http://www.w3.org/2000/svg" width="64" height="64" fill="none"><path fill="#212121" d="M58.672 29.736H5.332v26.732h53.34z"/><path fill="#b0bec5" d="M5.332 55.864v1.213c0 .88.716 1.595 1.596 1.595H57.08c.88 0 1.595-.715 1.595-1.595v-1.213z"/><path fill="#b9e4ea" d="M56.832 58.068a.89.89 0 0 1-.889-.889v-1.084h1.778v1.084a.89.89 0 0 1-.889.889M7.125 58.068a.89.89 0 0 1-.889-.889v-1.084h1.778v1.084a.89.89 0 0 1-.889.89"/><path fill="#616161" d="M57.907 55.06h-2.17a.755.755 0 0 1-.755-.757V33.905c0-.418.338-.755.756-.755h2.169c.418 0 .755.337.755.755v20.398a.755.755 0 0 1-.755.756M8.256 55.06H6.088a.755.755 0 0 1-.756-.757V33.905c0-.418.338-.755.756-.755h2.168c.418 0 .756.337.756.755v20.398a.76.76 0 0 1-.756.756"/><path fill="#90a4ae" d="M14.773 21.01H9.329a1.31 1.31 0 0 1-1.311-1.312V16.49a1.31 1.31 0 0 1 1.31-1.31h5.445a1.31 1.31 0 0 1 1.31 1.31v3.21a1.316 1.316 0 0 1-1.31 1.31"/><path fill="#94d1e0" d="M10.791 21.565H9.014v-4.622c0-.49.4-.889.889-.889.488 0 .888.4.888.889z"/><path fill="#546e7a" d="M22.382 19.467h-2.449a.884.884 0 0 1-.884-.884v-2.449c0-.489.235-.702.884-.884.65-.183 1.831-.205 2.449 0 .507.168.884.395.884.884v2.449c0 .489-.4.884-.884.884"/><path fill="#90a4ae" d="M22.818 21.578H19.49a1.965 1.965 0 0 1-1.965-1.964v-.289c0-1.084.88-1.964 1.965-1.964h3.328c1.085 0 1.965.88 1.965 1.964v.29a1.96 1.96 0 0 1-1.965 1.963"/><path fill="#b0bec5" d="M57.663 18.738H7.133c-.996 0-1.801.805-1.801 1.8v9.653h53.34V19.747c0-.56-.453-1.009-1.009-1.009"/><path fill="#616161" d="M35.731 57.384c8.05 0 14.576-6.526 14.576-14.575 0-8.05-6.526-14.576-14.576-14.576S21.156 34.76 21.156 42.81s6.526 14.575 14.575 14.575"/><path fill="#e0e0e0" d="M35.731 55.464c6.99 0 12.655-5.666 12.655-12.655 0-6.99-5.666-12.655-12.655-12.655S23.076 35.82 23.076 42.81c0 6.99 5.666 12.655 12.655 12.655"/><path fill="#2f7889" d="M35.73 51.846a9.037 9.037 0 1 0 0-18.074 9.037 9.037 0 0 0 0 18.074"/><path fill="#000" d="M35.732 54.437c6.422 0 11.628-5.206 11.628-11.628s-5.206-11.628-11.628-11.628-11.628 5.206-11.628 11.628 5.206 11.628 11.628 11.628"/><path fill="#2f7889" d="M35.73 51.669a8.862 8.862 0 1 0 0-17.724 8.862 8.862 0 0 0 0 17.724"/><path fill="#94d1e0" d="M33.63 35.372c-2.804.636-4.48 3.365-4.48 5.378 0 1.63 1.08 1.222 1.427.63.893-1.515 1.973-2.777 3.835-3.306.747-.213 1.618-.68 1.53-1.55-.125-1.24-1.356-1.37-2.312-1.152"/><path fill="#000" d="M35.73 46.764a3.955 3.955 0 1 0 0-7.91 3.955 3.955 0 0 0 0 7.91" opacity=".25"/><path fill="#78909c" d="M53.554 28.108h-8.066a.853.853 0 0 1-.853-.853v-5.622c0-.471.382-.854.853-.854h8.066c.471 0 .854.383.854.854v5.626a.85.85 0 0 1-.854.849"/><path fill="#757575" d="M44.635 27.041v-5.315c0-.524.422-.947.946-.947h7.907c.444 0 .626.245.626.245l-9.173 6.853s-.306-.187-.306-.836"/><path fill="#212121" d="M52.622 22.117h-6.2v4.653h6.2z"/><path fill="#fcebcd" d="M30.57 25.965a.183.183 0 0 1-.181-.182v-4.6c0-.098.08-.182.182-.182h10.32c.097 0 .182.08.182.182v4.6c0 .098-.08.182-.183.182z"/><path fill="#78909c" d="M40.846 21.228v4.515H30.615v-4.515zm.044-.45H30.57a.406.406 0 0 0-.404.405v4.6c0 .222.182.404.404.404h10.32a.406.406 0 0 0 .404-.404v-4.6a.403.403 0 0 0-.404-.404"/><path fill="#fff" d="M35.508 25.108a.34.34 0 0 1-.342-.342V22.21a.342.342 0 0 1 .684 0v2.556a.34.34 0 0 1-.342.342M33.98 25.108a.467.467 0 0 1-.466-.466V22.33a.467.467 0 1 1 .933 0v2.31a.467.467 0 0 1-.467.467M32.24 25.108a.615.615 0 0 1-.613-.613v-2.018a.615.615 0 0 1 1.227 0v2.018a.615.615 0 0 1-.614.613"/><path fill="#b9e4ea" d="M57.721 29.565h-1.778V20.5c0-.489.4-.889.89-.889.488 0 .888.4.888.889zM8.514 29.565H6.736V20.5c0-.489.4-.889.89-.889.488 0 .888.4.888.889z"/></svg>