<svg xmlns="http://www.w3.org/2000/svg" width="64" height="64" fill="none"><path fill="url(#a)" d="M31.823 56.346c-12.4 0-25.776-7.778-25.776-24.843S19.424 6.66 31.823 6.66c6.889 0 13.244 2.266 17.955 6.4 5.11 4.532 7.822 10.932 7.822 18.443 0 7.51-2.711 13.866-7.822 18.399-4.711 4.133-11.11 6.444-17.955 6.444"/><path fill="#eb8f00" d="M53.108 16.735c2.369 3.822 3.604 8.373 3.604 13.435 0 7.51-2.71 13.866-7.822 18.399-4.71 4.133-11.11 6.444-17.954 6.444-8.027 0-16.444-3.267-21.413-10.195 4.782 7.848 13.778 11.528 22.302 11.528 6.844 0 13.243-2.31 17.954-6.444 5.11-4.533 7.822-10.888 7.822-18.399 0-5.662-1.542-10.693-4.493-14.768"/><path fill="#422b0d" d="M32.179 40.579c-1.592 0-3.17-.267-4.667-.8a3.528 3.528 0 0 0-4.089 5.288C25.334 48 28.357 49.6 32.18 49.6s6.844-1.6 8.755-4.533a3.53 3.53 0 0 0-.987-4.893 3.52 3.52 0 0 0-3.102-.395c-1.498.533-3.075.8-4.666.8"/><path fill="url(#b)" d="M18.756 43.202c4.295 0 7.777-3.283 7.777-7.333s-3.482-7.333-7.777-7.333-7.777 3.283-7.777 7.333 3.482 7.333 7.777 7.333" opacity=".8"/><path fill="url(#c)" d="M45.6 43.202c4.295 0 7.777-3.283 7.777-7.333s-3.482-7.333-7.777-7.333c-4.296 0-7.778 3.283-7.778 7.333s3.482 7.333 7.778 7.333" opacity=".8"/><path fill="#f44336" d="M51.374 18.825c-3.649-1.026-6.328 1.956-6.328 1.956s-.312-3.382-3.431-4.444c-3.742-1.285-7.693.76-7.929 6.061-.266 6.04 7.724 13.969 7.724 13.969s9.92-2.667 13.168-8.32c2.645-4.6-.444-8.448-3.204-9.222"/><path fill="#c62828" d="M51.374 18.817A5 5 0 0 0 50 18.653a8.4 8.4 0 0 1 2.986 3.529c.627 1.506.791 3.453-.4 5.777-2.582 5.053-10.533 8.182-11.11 8.4.724-.205 9.995-2.872 13.119-8.307 2.626-4.613-.462-8.461-3.222-9.235M45.039 21.327a8 8 0 0 0-.205-1.377 4.64 4.64 0 0 0-2.222-3.111 6.7 6.7 0 0 0-2.573-.867s1.333.405 2.284 2.249c.485.969.774 2.026.845 3.106-.005.396.066.783.209 1.151a.89.89 0 0 0 .95.525c.61-.156.743-.916.712-1.676"/><path fill="#ff847a" d="M36.401 19.207c.831-1.03 2.195-2.013 3.502-1.106.693.484.702 1.857-.147 2.475-1.43 1.049-1.497 1.738-1.657 2.316-.196.688-.32 1.51-.947 1.857s-1.178 0-1.507-.99a4.7 4.7 0 0 1 .756-4.552"/><path fill="#f44336" d="M21.654 16.244c-3.604 1.17-4.182 5.138-4.182 5.138s-2.133-2.667-5.333-1.804c-3.817 1.004-5.973 4.897-3.248 9.435 3.155 5.2 14.194 7.355 14.194 7.355s6.778-7.715 6.351-14.222c-.35-5.297-5.057-6.786-7.782-5.902"/><path fill="#c62828" d="M21.655 16.244c-.44.143-.862.347-1.249.605a8.4 8.4 0 0 1 4.445 1.284c1.36.89 2.573 2.436 2.875 5.036.653 5.64-4.235 12.648-4.613 13.159.493-.57 6.728-7.929 6.32-14.186-.347-5.293-5.054-6.782-7.778-5.898M17.779 21.851a6.7 6.7 0 0 0-.934-1.035 4.63 4.63 0 0 0-3.555-1.387 6.7 6.7 0 0 0-2.622.702s1.333-.404 3.147.61a8.2 8.2 0 0 1 2.426 2.15c.213.334.489.618.813.845a.89.89 0 0 0 1.08-.094c.396-.48.09-1.182-.355-1.79"/><path fill="#ff847a" d="M9.424 24.884a4.4 4.4 0 0 1 .195-1.097 2.43 2.43 0 0 1 1.418-1.662c.68-.214 1.622-.063 1.987.617.324.605.089 1.334-.09 2-.16.765-.248 1.547-.266 2.329a1.16 1.16 0 0 1-1.146 1.169c-.605 0-1.076-.525-1.414-1.027a3.9 3.9 0 0 1-.684-2.329"/><defs><radialGradient id="a" cx="0" cy="0" r="1" gradientTransform="matrix(25.3141 0 0 25.314 31.823 31.503)" gradientUnits="userSpaceOnUse"><stop offset=".5" stop-color="#fde030"/><stop offset=".92" stop-color="#f7c02b"/><stop offset="1" stop-color="#f4a223"/></radialGradient><radialGradient id="b" cx="0" cy="0" r="1" gradientTransform="matrix(8.47594 0 0 7.61102 18.756 32.496)" gradientUnits="userSpaceOnUse"><stop stop-color="#ed7770"/><stop offset=".9" stop-color="#ed7770" stop-opacity="0"/></radialGradient><radialGradient id="c" cx="0" cy="0" r="1" gradientTransform="matrix(8.64843 0 0 8.64839 58.275 1126.87)" gradientUnits="userSpaceOnUse"><stop stop-color="#ed7770"/><stop offset=".9" stop-color="#ed7770" stop-opacity="0"/></radialGradient></defs></svg>