<svg xmlns="http://www.w3.org/2000/svg" id="Logo" viewBox="0 0 400 400"><defs><style>.cls-1{fill:#00979d}</style></defs><path d="M321.63 200.006c0-31.868-26.88-57.794-59.921-57.794-3.05 0-6.151.208-9.218.653-25.676 3.661-42.858 22.13-52.475 36.294-9.65-14.163-26.831-32.633-52.5-36.294a64.5 64.5 0 0 0-9.217-.653c-33.057 0-59.93 25.926-59.93 57.794 0 31.873 26.873 57.782 59.905 57.782 3.067 0 6.176-.191 9.243-.632 25.668-3.682 42.849-22.16 52.5-36.336 9.616 14.176 26.798 32.654 52.474 36.336 3.067.44 6.167.632 9.243.632 33.032 0 59.897-25.909 59.897-57.782m-177.023 36.856a44.4 44.4 0 0 1-6.334.461c-21.728 0-39.416-16.757-39.416-37.317 0-20.572 17.688-37.33 39.44-37.33 2.087 0 4.215.17 6.318.458 24.188 3.453 39 27.31 44.021 36.86-5.029 9.575-19.833 33.419-44.03 36.868m66.772-36.856c5.02-9.563 19.824-33.419 44.013-36.872 2.094-.287 4.239-.457 6.317-.457 21.744 0 39.432 16.757 39.432 37.33 0 20.56-17.688 37.316-39.407 37.316-2.095 0-4.231-.157-6.342-.46-24.189-3.45-39.01-27.314-44.013-36.857" class="cls-1"/><path d="M121.783 194.358h35.983v11.595h-35.983zM265.699 205.954h12.16v-11.596h-12.16v-12.202H254.07v12.202h-12.177v11.596h12.177v12.202h11.629zM316.628 149.233a2 2 0 0 0 .842-.742 2 2 0 0 0 .292-1.057c0-.599-.217-1.123-.65-1.562-.426-.438-1.16-.664-2.202-.664q-.588-.001-1.05.029c-.31.02-.601.045-.885.082v6.291h1.61v-2.061h.65l1.126 2.061h1.834zm-1.61-.853c-.217 0-.383-.012-.483-.049v-1.692c.1-.033.283-.054.533-.054.684 0 1.026.295 1.026.898 0 .602-.359.897-1.076.897" class="cls-1"/><path d="M315.232 142.213a6.4 6.4 0 1 0 .002 12.798 6.4 6.4 0 0 0-.002-12.798m0 11.376c-2.684 0-4.86-2.228-4.86-4.976s2.176-4.98 4.86-4.98c2.68 0 4.856 2.232 4.856 4.98s-2.176 4.976-4.856 4.976" class="cls-1"/></svg>