<svg width="32" height="32" viewBox="0 0 32 32" fill="none" xmlns="http://www.w3.org/2000/svg">
<path d="M16.001 29.3367C17.4847 29.3367 18.6875 28.6274 18.6875 27.7523C18.6875 26.8773 17.4847 26.168 16.001 26.168C14.5173 26.168 13.3145 26.8773 13.3145 27.7523C13.3145 28.6274 14.5173 29.3367 16.001 29.3367Z" fill="#424242"/>
<path d="M16.0011 2.66699C11.3161 2.66699 7.51562 6.14965 7.51562 10.4435C7.51562 11.5637 7.85345 12.7616 8.34906 13.8173C9.04471 15.3019 9.80258 16.3998 10.0248 16.8043C10.6427 17.9289 10.5538 19.1135 10.7249 19.8558C11.0472 21.2427 12.0117 21.7449 15.9989 21.7449C19.9861 21.7449 20.844 21.2671 21.2018 19.9892C21.4463 19.1202 21.2084 18.1712 21.8241 17.0488C22.0463 16.6443 22.9509 15.3041 23.6488 13.8173C24.1444 12.7616 24.4822 11.5637 24.4822 10.4435C24.4866 6.14965 20.6862 2.66699 16.0011 2.66699Z" fill="#FFD600"/>
<path d="M16.0012 21.9108C18.6942 21.9108 20.8773 21.4671 20.8773 20.9198C20.8773 20.3724 18.6942 19.9287 16.0012 19.9287C13.3081 19.9287 11.125 20.3724 11.125 20.9198C11.125 21.4671 13.3081 21.9108 16.0012 21.9108Z" fill="#B26500"/>
<path d="M16.0012 21.9108C18.6942 21.9108 20.8773 21.4671 20.8773 20.9198C20.8773 20.3724 18.6942 19.9287 16.0012 19.9287C13.3081 19.9287 11.125 20.3724 11.125 20.9198C11.125 21.4671 13.3081 21.9108 16.0012 21.9108Z" fill="#B26500"/>
<path d="M16.0014 21.3784C17.9637 21.3784 19.5545 21.1735 19.5545 20.9206C19.5545 20.6678 17.9637 20.4629 16.0014 20.4629C14.039 20.4629 12.4482 20.6678 12.4482 20.9206C12.4482 21.1735 14.039 21.3784 16.0014 21.3784Z" fill="#FFA000"/>
<path fill-rule="evenodd" clip-rule="evenodd" d="M13.3525 14.4701C13.378 14.4101 13.4004 14.3572 13.4174 14.3145L13.8304 14.4786C13.807 14.5374 13.7801 14.6008 13.7517 14.6677C13.6873 14.8192 13.6153 14.9887 13.5595 15.1639C13.5203 15.2871 13.4942 15.399 13.4867 15.4924C13.4789 15.589 13.4931 15.6407 13.507 15.6645C13.6725 15.9489 13.9379 16.1543 14.2226 16.3744C14.2641 16.4065 14.306 16.4389 14.348 16.4719C14.6485 16.7078 15.0038 17.0077 15.0038 17.4719C15.0038 18.0202 14.8083 19.1509 14.6198 20.1203C14.5244 20.6103 14.4291 21.0674 14.3577 21.4019C14.322 21.5692 14.2922 21.7059 14.2713 21.8008C14.2609 21.8483 14.2527 21.8853 14.2471 21.9105L14.2385 21.9491C14.2385 21.9491 14.2385 21.9493 14.0217 21.9006C13.8048 21.8519 13.8048 21.8519 13.8048 21.8519L13.8133 21.8141C13.8188 21.7892 13.8269 21.7525 13.8373 21.7054C13.858 21.6112 13.8876 21.4754 13.9231 21.3091C13.9941 20.9763 14.0889 20.5221 14.1835 20.0355C14.3749 19.0516 14.5594 17.968 14.5594 17.4719C14.5594 17.2517 14.3981 17.0761 14.0736 16.8215C14.0364 16.7923 13.9974 16.7623 13.957 16.7312C13.6777 16.5166 13.3359 16.254 13.123 15.8883M13.3525 14.4701C13.2858 14.6274 13.1985 14.8331 13.1361 15.0291L13.3525 14.4701ZM13.1361 15.0291C13.092 15.1675 13.055 15.3156 13.0437 15.4568L13.1361 15.0291ZM13.0437 15.4568C13.0326 15.5947 13.0437 15.7522 13.123 15.8883L13.0437 15.4568Z" fill="#B26500"/>
<path fill-rule="evenodd" clip-rule="evenodd" d="M18.0286 14.3655C18.0286 14.3656 18.0286 14.3656 18.23 14.2716C18.4314 14.1777 18.4314 14.1777 18.4314 14.1777L18.4316 14.1781L18.432 14.179L18.4333 14.1818L18.4379 14.192C18.4419 14.2007 18.4475 14.2132 18.4545 14.2292C18.4685 14.261 18.4879 14.3066 18.5106 14.3626C18.5556 14.4743 18.6138 14.6292 18.6653 14.8007C18.7165 14.9712 18.7631 15.1642 18.782 15.3507C18.8004 15.5322 18.7957 15.7342 18.7199 15.9058L18.7198 15.9061C18.6609 16.0388 18.543 16.167 18.4267 16.2753C18.3046 16.3889 18.1597 16.5026 18.0204 16.6048C17.8804 16.7075 17.7423 16.8013 17.6329 16.8746C17.6024 16.8951 17.5751 16.9133 17.5511 16.9293C17.4847 16.9736 17.4429 17.0014 17.4259 17.0145C17.4256 17.015 17.415 17.0258 17.4 17.0599C17.383 17.0984 17.366 17.1539 17.3511 17.2289C17.3212 17.379 17.3046 17.5808 17.3001 17.8229C17.2913 18.3054 17.3314 18.9143 17.3898 19.5165C17.4482 20.1173 17.5242 20.705 17.5857 21.143C17.6164 21.3619 17.6435 21.543 17.6629 21.6694C17.6726 21.7326 17.6803 21.782 17.6856 21.8156L17.6917 21.8538L17.6938 21.8664C17.6938 21.8664 17.6938 21.8666 17.4745 21.9023C17.2552 21.9381 17.2552 21.9381 17.2552 21.938L17.253 21.9244L17.2467 21.8852C17.2413 21.8509 17.2334 21.8007 17.2236 21.7367C17.204 21.6088 17.1766 21.4258 17.1456 21.2048C17.0836 20.7631 17.0067 20.1687 16.9475 19.5595C16.8885 18.9518 16.8465 18.323 16.8558 17.8147C16.8604 17.5614 16.8779 17.3296 16.9152 17.1421C16.9339 17.0482 16.9589 16.959 16.9931 16.881C17.0266 16.8049 17.0756 16.7245 17.1507 16.6655L17.151 16.6653C17.1817 16.6413 17.2468 16.5979 17.322 16.5478C17.3426 16.5341 17.364 16.5198 17.3856 16.5054C17.4933 16.4332 17.6252 16.3435 17.7575 16.2465C17.8904 16.149 18.0198 16.0468 18.1239 15.95C18.2335 15.8479 18.2934 15.7712 18.3135 15.726C18.3431 15.6588 18.3554 15.5483 18.3399 15.3956C18.3248 15.2477 18.2865 15.0845 18.2397 14.9286C18.1932 14.7737 18.1401 14.6321 18.0984 14.5289C18.0777 14.4775 18.0599 14.436 18.0475 14.4076C18.0413 14.3935 18.0364 14.3826 18.0332 14.3755L18.0296 14.3676L18.0288 14.3658L18.0286 14.3655Z" fill="#B26500"/>
<path fill-rule="evenodd" clip-rule="evenodd" d="M15.2802 9.73549C15.4131 9.52031 15.6208 9.37861 15.8993 9.38189C16.1539 9.38489 16.3609 9.48914 16.511 9.66825C16.6543 9.83926 16.7366 10.0669 16.7811 10.3111C16.8699 10.7995 16.8209 11.4343 16.6973 12.0679C16.5819 12.6596 16.3976 13.2689 16.1812 13.7879C16.2506 13.943 16.3224 14.0849 16.3953 14.2093C16.5257 14.4317 16.6479 14.5776 16.7492 14.6498C16.798 14.6845 16.8315 14.6947 16.8508 14.6968C16.8657 14.6984 16.8818 14.6965 16.9054 14.6813C16.9698 14.6398 17.0694 14.5377 17.1945 14.363C17.3157 14.194 17.448 13.9753 17.5821 13.7224C17.6413 13.6107 17.7004 13.4931 17.7588 13.371C17.6591 12.9648 17.5505 12.4707 17.4724 11.9752C17.3799 11.3883 17.3268 10.7789 17.3924 10.3081C17.4251 10.0737 17.4903 9.84968 17.6151 9.67953C17.7483 9.49799 17.9426 9.38854 18.1899 9.38854C18.4549 9.38854 18.6702 9.48902 18.8166 9.68013C18.9543 9.85992 19.0134 10.097 19.03 10.3439C19.0633 10.838 18.9327 11.4782 18.7338 12.1104C18.5943 12.5539 18.4173 13.005 18.2281 13.4166C18.2342 13.4405 18.2402 13.4641 18.2461 13.4872C18.3016 13.7034 18.3514 13.8835 18.3873 14.0094C18.4052 14.0723 18.4196 14.1216 18.4295 14.1551C18.432 14.1635 18.4342 14.1709 18.4361 14.1772C18.438 14.1835 18.4396 14.1888 18.4409 14.193L18.4438 14.2025L18.4445 14.2048L18.4446 14.2054C18.4446 14.2054 18.4446 14.2055 18.2322 14.2705C18.0197 14.3356 18.0197 14.3355 18.0197 14.3355L18.0185 14.3317L18.0154 14.3213C18.0126 14.3121 18.0086 14.2987 18.0034 14.2813C17.9931 14.2465 17.9782 14.1957 17.9599 14.1312C17.9501 14.0971 17.9394 14.0591 17.9279 14.0177C17.8029 14.2471 17.6767 14.4531 17.5558 14.6218C17.4239 14.8059 17.2842 14.966 17.1459 15.0551C17.0412 15.1224 16.9242 15.1516 16.8035 15.1387C16.687 15.1262 16.5821 15.0764 16.4914 15.0118C16.3139 14.8854 16.1535 14.6756 16.0119 14.434C15.9874 14.3922 15.9631 14.3488 15.939 14.304C15.8764 14.4215 15.812 14.5309 15.7464 14.6298C15.6139 14.8294 15.4661 15.002 15.3053 15.1074C15.0831 15.2531 14.8446 15.2015 14.6531 15.0801C14.4685 14.9631 14.2942 14.765 14.136 14.5333C14.0717 14.4392 14.0082 14.3365 13.9459 14.227C13.9058 14.3213 13.8644 14.411 13.8218 14.4953L13.4252 14.2946C13.5141 14.119 13.5982 13.9146 13.6756 13.6911C13.534 13.377 13.4053 13.0344 13.2979 12.6867C13.0821 11.9882 12.9449 11.245 12.9722 10.6467C12.9858 10.3483 13.041 10.0673 13.1633 9.8438C13.2902 9.61216 13.4902 9.44271 13.7706 9.39209M14.153 13.6637C14.3795 12.9551 14.5379 12.1165 14.5893 11.386C14.6262 10.863 14.6101 10.3716 14.5126 10.0134C14.4641 9.83541 14.3893 9.66637 14.2692 9.54659C14.1383 9.41606 13.9653 9.35692 13.7706 9.39209M14.153 13.6637C14.2659 13.8984 14.3844 14.1089 14.5031 14.2827C14.6481 14.4952 14.7816 14.6354 14.8911 14.7048C14.9936 14.7698 15.0355 14.7529 15.0616 14.7357C15.1491 14.6784 15.2571 14.5633 15.3761 14.384C15.484 14.2215 15.5928 14.0186 15.6973 13.7868C15.5397 13.4033 15.401 12.9685 15.2937 12.5298C15.1195 11.818 15.0218 11.0713 15.0698 10.4935C15.0937 10.2068 15.155 9.93822 15.2802 9.73549M15.9412 13.1689C16.072 12.7907 16.1831 12.3826 16.2611 11.9828C16.3805 11.3707 16.4181 10.7992 16.3438 10.3906C16.3067 10.1864 16.2451 10.0429 16.1703 9.9537C16.1024 9.87264 16.0173 9.82773 15.8941 9.82628C15.795 9.82512 15.7225 9.86521 15.6584 9.96901C15.5866 10.0852 15.5341 10.2728 15.5127 10.5303C15.4703 11.041 15.5568 11.7352 15.7254 12.4242C15.7879 12.6798 15.8609 12.9312 15.9412 13.1689ZM13.8768 13.0099C13.8219 12.8619 13.7701 12.7097 13.7225 12.5556C13.5144 11.882 13.3922 11.1938 13.4161 10.6669C13.4282 10.4027 13.4763 10.1976 13.5532 10.0572C13.6256 9.92497 13.7207 9.85271 13.8496 9.82943C13.8977 9.82074 13.925 9.83094 13.9554 9.8613C13.9967 9.90243 14.0445 9.98582 14.0838 10.1301C14.1617 10.4163 14.1816 10.8486 14.146 11.3548C14.1086 11.8848 14.0125 12.4696 13.8768 13.0099ZM18.0574 12.6858C18.1499 12.4524 18.2355 12.2134 18.3099 11.977C18.504 11.36 18.6142 10.7838 18.5866 10.3737C18.5728 10.1685 18.526 10.0316 18.4638 9.95036C18.4102 9.88047 18.3316 9.83296 18.1899 9.83296C18.0912 9.83296 18.0272 9.86914 17.9735 9.94242C17.9113 10.0271 17.8608 10.1672 17.8326 10.3695C17.7764 10.7725 17.8203 11.328 17.9114 11.906C17.9531 12.1702 18.0038 12.4349 18.0574 12.6858Z" fill="white"/>
<path d="M20.8665 21.127C20.8665 21.127 19.5863 21.7447 16.0014 21.7447C12.4165 21.7447 11.1364 21.127 11.1364 21.127C11.1364 21.127 11.0564 22.2691 11.3208 22.7869C11.6387 23.4091 11.8831 23.6246 11.8831 23.6246L12.0165 24.2579L11.9631 24.4246C11.8942 24.6423 11.9431 24.8823 12.0965 25.0534L12.2121 25.1823L12.341 25.7912L12.2965 25.9134C12.2121 26.1467 12.2698 26.4067 12.4432 26.5844L12.5277 26.6711L12.6321 27.1689C12.6321 27.1689 13.1611 28.2977 16.0014 28.2977C18.8418 28.2977 19.3707 27.1689 19.3707 27.1689L19.3796 27.1266L19.4374 27.0689C19.553 26.9555 19.5908 26.7867 19.5352 26.6356L19.5019 26.5489L19.6397 25.8911L19.8819 25.6356C20.0019 25.5089 20.0286 25.3223 19.9508 25.1667L19.8397 24.9468L19.9797 24.2868L20.0686 24.2179C20.1997 24.0735 20.2019 23.8557 20.1442 23.7068C20.0997 23.589 20.1353 23.4557 20.2264 23.3691C20.3664 23.2357 20.5464 23.0335 20.6798 22.7824C20.9532 22.2736 20.8665 21.127 20.8665 21.127Z" fill="#82AEC0"/>
<path d="M11.8828 23.6253L12.0028 24.2631C13.2961 24.2564 15.0226 24.3208 18.3358 23.7942C18.9336 23.6586 19.6513 23.3898 18.858 23.5009C18.858 23.4987 15.8159 23.7898 11.8828 23.6253Z" fill="#2F7889"/>
<path d="M12.3261 25.7959C13.7572 25.7715 16.6815 25.6293 19.8235 24.9471L19.9635 24.2871C16.677 25.0337 13.5861 25.1671 12.1973 25.1848L12.3261 25.7959Z" fill="#2F7889"/>
<path d="M19.6246 25.8896C16.7158 26.5207 13.9938 26.6829 12.5205 26.7185L12.6161 27.1718C12.6161 27.1718 12.6627 28.5784 15.9848 28.5784C19.3068 28.5784 19.3535 27.1718 19.3535 27.1718C19.3535 27.1718 17.9358 27.5762 16.1914 27.3785C16.0137 27.3585 16.0114 27.1207 16.1892 27.0985C17.2314 26.9607 18.4757 26.7563 19.4868 26.5474L19.6246 25.8896Z" fill="#2F7889"/>
<path fill-rule="evenodd" clip-rule="evenodd" d="M21.2604 20.954C21.3559 21.1799 21.2501 21.4405 21.0242 21.5359L20.8513 21.1268C21.0242 21.5359 21.024 21.536 21.0238 21.5361L21.0234 21.5362L21.0226 21.5366L21.0204 21.5375L21.0145 21.5399C21.0099 21.5418 21.0037 21.5443 20.9962 21.5472C20.981 21.5532 20.9601 21.5612 20.9331 21.5709C20.8792 21.5904 20.8015 21.617 20.699 21.6482C20.4941 21.7106 20.1903 21.7915 19.7802 21.8716C18.96 22.0318 17.7157 22.1887 15.9885 22.1887C14.2612 22.1887 13.0234 22.0318 12.2094 21.8714C11.8024 21.7913 11.5016 21.7103 11.2988 21.6477C11.1974 21.6164 11.1206 21.5898 11.0672 21.5701C11.0405 21.5603 11.0197 21.5523 11.0047 21.5463C10.9972 21.5433 10.9911 21.5408 10.9864 21.5389L10.9805 21.5364L10.9784 21.5355L10.9775 21.5351L10.9771 21.5349C10.9769 21.5348 10.9767 21.5348 11.1523 21.1268L10.9767 21.5348C10.7514 21.4378 10.6473 21.1766 10.7443 20.9513C10.841 20.7265 11.1013 20.6224 11.3263 20.7182C11.3262 20.7182 11.3261 20.7181 11.3261 20.7181L11.3262 20.7182L11.3266 20.7184L11.3268 20.7184L11.3273 20.7186M11.3263 20.7182C11.3264 20.7183 11.3265 20.7183 11.3266 20.7184C11.3276 20.7188 11.33 20.7197 11.3338 20.7213C11.3415 20.7243 11.3548 20.7295 11.3741 20.7366C11.4125 20.7508 11.4744 20.7724 11.5607 20.799C11.7334 20.8523 12.0041 20.9257 12.3811 21C13.1351 21.1485 14.3152 21.3005 15.9885 21.3005C17.6617 21.3005 18.8488 21.1485 19.6099 20.9998C19.9905 20.9255 20.2648 20.8519 20.4403 20.7985C20.528 20.7718 20.5911 20.7501 20.6305 20.7358C20.6502 20.7287 20.6639 20.7234 20.6719 20.7203C20.6759 20.7188 20.6784 20.7177 20.6795 20.7173L20.679 20.7175L20.6787 20.7176C20.6791 20.7174 20.6795 20.7173 20.6799 20.7171C20.9055 20.6228 21.1652 20.7286 21.2604 20.954" fill="#82AEC0"/>
<path d="M12.863 4.07242C13.7318 3.8591 14.6407 3.96576 15.2629 4.72128C15.4384 4.9346 15.574 5.18792 15.6051 5.46346C15.6673 5.99455 15.3384 6.49674 14.9473 6.86561C13.8318 7.91889 12.2475 8.42997 11.5275 9.88323C11.3586 10.2232 11.2253 10.5899 10.9675 10.8676C10.7098 11.1454 10.2809 11.3143 9.94536 11.1365C9.76759 11.0432 9.64538 10.8676 9.54538 10.6921C8.91431 9.56769 8.96097 8.13443 9.5165 6.97005C10.1276 5.69456 11.4675 4.41463 12.863 4.07242Z" fill="#FFFF8D"/>
<path d="M12.1015 22.2095C11.906 22.1206 11.9838 21.8273 12.1971 21.8428C12.9126 21.8984 14.1303 21.9673 15.7413 21.9673C17.439 21.9673 18.9323 21.8406 19.8034 21.7473C20.0189 21.7251 20.1011 22.0206 19.9034 22.1117C19.2323 22.4272 18.0035 22.7872 15.8969 22.7872C13.8414 22.7872 12.7082 22.4828 12.1015 22.2095Z" fill="#FFD600"/>
<path d="M13.3207 24.4542C13.1718 24.5076 13.0185 24.5809 12.9429 24.7187C12.9163 24.7698 12.9007 24.8276 12.9118 24.8853C12.9296 24.9698 13.0074 25.0298 13.0852 25.0675C13.2407 25.1431 13.4162 25.1631 13.5874 25.1653C13.9407 25.1698 14.2918 25.1031 14.6406 25.0364C14.7451 25.0164 14.8517 24.9964 14.9451 24.9453C15.0384 24.8942 15.1184 24.8076 15.1339 24.7031C15.1562 24.5631 15.0562 24.4276 14.9339 24.3609C14.5117 24.1276 13.7473 24.3009 13.3207 24.4542Z" fill="#94D1E0"/>
<path d="M13.6518 25.9185C13.5029 25.9719 13.3495 26.0452 13.274 26.183C13.2473 26.2341 13.2318 26.2919 13.2429 26.3496C13.2607 26.4341 13.3384 26.4941 13.4162 26.5318C13.5718 26.6074 13.7473 26.6274 13.9184 26.6296C14.2717 26.6341 14.6228 26.5674 14.9717 26.5007C15.0761 26.4807 15.1828 26.4607 15.2761 26.4096C15.3694 26.3585 15.4494 26.2719 15.465 26.1674C15.4872 26.0274 15.3872 25.8919 15.265 25.8252C14.8428 25.5941 14.0762 25.7674 13.6518 25.9185Z" fill="#94D1E0"/>
<path d="M12.8923 20.4916C13.0945 20.5116 13.3079 20.4938 13.479 20.3849C13.6501 20.276 13.759 20.0538 13.6901 19.8627C13.6545 19.7627 13.5767 19.6827 13.5012 19.6072C13.3345 19.4427 13.1679 19.2783 13.0034 19.1139C12.819 18.9294 12.6346 18.7472 12.4346 18.5806C12.1257 18.3228 11.7102 18.0806 11.3035 18.2695C10.9569 18.4295 10.8747 18.745 11.028 19.0761C11.3546 19.7716 12.1146 20.4116 12.8923 20.4916Z" fill="#FFFF8D"/>
</svg>
