<svg width="32" height="32" viewBox="0 0 32 32" fill="none" xmlns="http://www.w3.org/2000/svg">
<g clip-path="url(#clip0_4517_39288)">
<path d="M8.89438 8.98455L5.24629 6.64709C4.93154 6.45359 4.87994 6.01758 5.14051 5.757L6.51048 4.38704C6.77364 4.12388 7.21739 4.18064 7.40573 4.50313L9.68643 8.21056C9.9857 8.72139 9.40005 9.29415 8.89438 8.98455Z" fill="#FFC107"/>
<path d="M5.70543 20.2277L1.46912 20.3128C1.10018 20.3206 0.837023 20.6715 0.929902 21.0275L1.42268 22.9005C1.51814 23.2617 1.92835 23.4346 2.25343 23.254L5.99697 21.2958C6.51296 21.0043 6.29883 20.2148 5.70543 20.2277Z" fill="#FFC107"/>
<path d="M15.5451 27.424L14.6163 31.5494C14.5312 31.908 14.8021 32.2537 15.171 32.2537H17.1086C17.4827 32.2537 17.7536 31.9002 17.6607 31.539L16.6519 27.4137C16.5023 26.8383 15.6844 26.8461 15.5451 27.424Z" fill="#FFC107"/>
<path d="M23.1049 8.98455L26.753 6.64709C27.0677 6.45359 27.1193 6.01758 26.8587 5.757L25.4888 4.38704C25.2256 4.12388 24.7819 4.18064 24.5935 4.50313L22.3128 8.21056C22.0135 8.72139 22.5992 9.29415 23.1049 8.98455Z" fill="#FFC107"/>
<path d="M26.2938 20.2277L30.5302 20.3128C30.8991 20.3206 31.1623 20.6715 31.0694 21.0275L30.5766 22.9005C30.4811 23.2617 30.0709 23.4346 29.7458 23.254L26.0023 21.2958C25.4863 21.0043 25.7004 20.2148 26.2938 20.2277Z" fill="#FFC107"/>
<path d="M17.0438 1.352L20.5165 9.27252C20.7822 9.87881 21.3576 10.2942 22.018 10.3535L30.4778 11.112C31.4349 11.2514 31.8168 12.4252 31.1228 13.1012L24.7502 18.4546C24.2342 18.8881 23.9994 19.5692 24.1413 20.2271L25.9938 28.8984C26.1563 29.8504 25.1579 30.5779 24.3013 30.1264L16.9174 25.8024C16.3498 25.4696 15.6481 25.4696 15.0805 25.8024L7.6966 30.1239C6.84263 30.5728 5.8416 29.8478 6.00414 28.8958L7.85656 20.2245C7.99588 19.5666 7.76368 18.8855 7.24768 18.4521L0.872571 13.1038C0.181138 12.4304 0.562974 11.2539 1.51756 11.1146L9.9773 10.3561C10.6378 10.2968 11.2131 9.88139 11.4788 9.27509L14.9515 1.35458C15.3823 0.487707 16.6156 0.487707 17.0438 1.352Z" fill="#FDD835"/>
<path d="M16.7907 9.74853L16.2025 3.91262C16.1793 3.58755 16.1122 3.03027 16.6333 3.03027C17.0461 3.03027 17.2706 3.8894 17.2706 3.8894L19.0353 8.57464C19.7009 10.3574 19.4275 10.9689 18.785 11.33C18.0472 11.7428 16.9584 11.4203 16.7907 9.74853Z" fill="#FFFF8D"/>
<path d="M24.0693 17.9367L29.1312 13.9868C29.3815 13.7778 29.833 13.445 29.4718 13.0657C29.1854 12.7665 28.4114 13.1973 28.4114 13.1973L23.9816 14.9285C22.6607 15.3851 21.7835 16.0611 21.7061 16.9125C21.6054 18.0477 22.6245 18.9223 24.0693 17.9367Z" fill="#F4B400"/>
</g>
<defs>
<clipPath id="clip0_4517_39288">
<rect width="32" height="32" fill="white"/>
</clipPath>
</defs>
</svg>
