<svg width="15" height="11" viewBox="0 0 15 11" fill="none" xmlns="http://www.w3.org/2000/svg">
<path d="M9.76059 0.751501C10.5429 0.808397 11.3383 0.851069 12.1159 0.720683C12.8555 0.597408 13.5477 0.314113 14.2246 0C14.2246 3.25255 14.2246 6.50392 14.2246 9.75648C13.5537 10.0682 12.865 10.3373 12.1324 10.4606C11.3406 10.5945 10.5358 10.5518 9.73926 10.4902C9.74637 7.24357 9.75348 3.99694 9.76059 0.751501Z" fill="#ED2939"/>
<path d="M4.48263 0.0625C6.25233 0.22252 7.98885 0.607753 9.76092 0.751179C9.75381 3.99781 9.7467 7.24325 9.74077 10.4899C7.97818 10.3393 6.24167 9.99322 4.48145 9.82372C4.48263 6.56998 4.48263 3.31624 4.48263 0.0625Z" fill="#FAE042"/>
<path d="M0 0.792141C0.680381 0.492251 1.3738 0.212513 2.10989 0.0868673C2.8934 -0.0470754 3.6935 -0.00203279 4.48175 0.0619752C4.48175 3.31572 4.48175 6.56946 4.48056 9.8232C3.68876 9.75326 2.88629 9.71296 2.09685 9.82675C1.35839 9.93343 0.667343 10.1942 0 10.5225C0 7.28066 0 4.0364 0 0.792141Z" fill="black"/>
</svg>
