<svg width="15" height="11" viewBox="0 0 15 11" fill="none" xmlns="http://www.w3.org/2000/svg">
<path d="M9.75488 0.753872C10.5408 0.808397 11.3397 0.849884 12.1208 0.720683C12.8593 0.598593 13.5503 0.318855 14.2236 0C14.2236 3.25255 14.2236 6.50392 14.2236 9.75648C13.5479 10.0706 12.8557 10.3491 12.1173 10.4677C11.3385 10.5933 10.5419 10.553 9.75844 10.5009C9.75725 7.25187 9.75607 4.00287 9.75488 0.753872Z" fill="#CE2B37"/>
<path d="M4.48429 0.0585938C6.2528 0.211502 7.98458 0.6157 9.75665 0.753199C9.75783 4.0022 9.75902 7.2512 9.76021 10.5002C7.98695 10.3686 6.25399 9.97035 4.48429 9.81507C4.4831 6.56252 4.4831 3.31115 4.48429 0.0585938Z" fill="white"/>
<path d="M0 0.804126C0.676825 0.488827 1.36906 0.206718 2.10871 0.0846283C2.89221 -0.0457583 3.6935 -0.00190105 4.48293 0.0597363C4.48293 3.31229 4.48293 6.56485 4.48293 9.81621C3.68402 9.75339 2.87799 9.71309 2.08382 9.84703C1.35721 9.96912 0.669713 10.2252 0 10.5239C0 7.28434 0 4.04364 0 0.804126Z" fill="#009246"/>
</svg>
