<svg width="15" height="11" viewBox="0 0 15 11" fill="none" xmlns="http://www.w3.org/2000/svg">
<path d="M0 7.26015C1.15451 6.77535 2.27703 6.47664 3.53703 6.50865C4.73778 6.53947 5.93022 6.71015 7.112 6.91759C8.28904 7.12384 9.48741 7.2637 10.6822 7.29334C11.9529 7.32416 13.079 7.05272 14.224 6.50391C14.224 7.58849 14.224 8.67188 14.224 9.75646C13.0778 10.3041 11.9541 10.5755 10.6822 10.5459C9.48622 10.5186 8.28785 10.3859 7.112 10.1701C5.93141 9.95323 4.73778 9.78847 3.53585 9.76002C2.27584 9.73157 1.14859 10.0018 0 10.5115C0 9.42812 0 8.34354 0 7.26015Z" fill="#21468B"/>
<path d="M0 4.00624C1.16163 3.54515 2.27821 3.22037 3.53822 3.25474C4.73778 3.28793 5.93022 3.46573 7.112 3.66368C8.29141 3.86045 9.48622 4.00743 10.6822 4.03825C11.9505 4.07144 13.0813 3.79881 14.224 3.25C14.224 4.33458 14.224 5.41797 14.224 6.50256C13.0802 7.05136 11.9529 7.32281 10.6822 7.29199C9.48741 7.26235 8.28904 7.12248 7.112 6.91624C5.93022 6.7088 4.73778 6.53811 3.53703 6.5073C2.27703 6.47529 1.15451 6.774 0 7.2588C0 6.17422 0 5.09082 0 4.00624Z" fill="white"/>
<path d="M0 0.756243C1.12844 0.333079 2.21894 -0.0237067 3.43747 0.00237063C4.66903 0.0296333 5.89466 0.220472 7.10963 0.412496C8.30207 0.600964 9.50756 0.758613 10.7166 0.789432C11.9707 0.820251 13.0956 0.542883 14.224 0C14.224 1.08458 14.224 2.16797 14.224 3.25255C13.0813 3.80136 11.9505 4.07399 10.6822 4.0408C9.48622 4.00998 8.29022 3.863 7.112 3.66624C5.93022 3.46829 4.73778 3.29049 3.53822 3.2573C2.27821 3.22174 1.16163 3.5477 0 4.00761C0 2.92422 0 1.83964 0 0.756243Z" fill="#AE1C28"/>
</svg>
