<svg width="15" height="10" viewBox="0 0 15 10" fill="none" xmlns="http://www.w3.org/2000/svg">
<path d="M5.00256 10.0026C4.9203 10.003 4.83876 9.98727 4.76262 9.95616C4.68647 9.92506 4.61721 9.87923 4.55881 9.82131L0.183807 5.44631C0.0661175 5.32862 0 5.169 0 5.00256C0 4.83612 0.0661175 4.6765 0.183807 4.55881C0.301497 4.44112 0.461119 4.375 0.627557 4.375C0.793996 4.375 0.953618 4.44112 1.07131 4.55881L5.00256 8.49631L13.3088 0.183807C13.4265 0.0661172 13.5861 0 13.7526 0C13.919 0 14.0786 0.0661172 14.1963 0.183807C14.314 0.301497 14.3801 0.461119 14.3801 0.627557C14.3801 0.793996 14.314 0.953617 14.1963 1.07131L5.44631 9.82131C5.38791 9.87923 5.31865 9.92506 5.2425 9.95616C5.16635 9.98727 5.08481 10.003 5.00256 10.0026Z" fill="#2C353A"/>
</svg>
