<svg width="48" height="48" viewBox="0 0 48 48" fill="none" xmlns="http://www.w3.org/2000/svg">
<rect x="0.5" y="0.5" width="47" height="47" rx="23.5" fill="#16A588"/>
<rect x="0.5" y="0.5" width="47" height="47" rx="23.5" fill="white"/>
<rect x="0.5" y="0.5" width="47" height="47" rx="23.5" stroke="#16A588"/>
<path d="M21.7501 30.75C21.6514 30.7506 21.5536 30.7317 21.4622 30.6943C21.3708 30.657 21.2877 30.602 21.2176 30.5325L15.9676 25.2825C15.8264 25.1413 15.7471 24.9497 15.7471 24.75C15.7471 24.5503 15.8264 24.3587 15.9676 24.2175C16.1089 24.0763 16.3004 23.9969 16.5001 23.9969C16.6999 23.9969 16.8914 24.0763 17.0326 24.2175L21.7501 28.9425L31.7176 18.9675C31.8589 18.8263 32.0504 18.7469 32.2501 18.7469C32.4499 18.7469 32.6414 18.8263 32.7826 18.9675C32.9239 19.1087 33.0032 19.3003 33.0032 19.5C33.0032 19.6997 32.9239 19.8913 32.7826 20.0325L22.2826 30.5325C22.2126 30.602 22.1294 30.657 22.0381 30.6943C21.9467 30.7317 21.8488 30.7506 21.7501 30.75Z" fill="#16A588"/>
</svg>
