<svg width="16" height="14" viewBox="0 0 16 14" fill="none" xmlns="http://www.w3.org/2000/svg">
<path d="M14.9414 0C15.2726 0.000210063 15.541 0.268368 15.541 0.599609V6.50684C15.5409 6.83797 15.2725 7.10721 14.9414 7.10742C14.6102 7.10736 14.341 6.83805 14.3408 6.50684V1.19922H8.36816V6.50684C8.36814 6.56723 8.35644 6.62468 8.33984 6.67969C8.35883 6.73808 8.37206 6.79951 8.37207 6.86426V12.7715C8.37207 13.1027 8.10357 13.3718 7.77246 13.3721H0.599609C0.268239 13.3721 0 13.1029 0 12.7715V6.86426C7.54067e-05 6.53295 0.268285 6.26465 0.599609 6.26465C0.930849 6.26475 1.19914 6.53301 1.19922 6.86426V12.1719H7.17188V6.86426C7.17189 6.80318 7.18319 6.74496 7.2002 6.68945C7.18166 6.63162 7.16897 6.5708 7.16895 6.50684V0.599609C7.16895 0.268279 7.43724 6.58923e-05 7.76855 0H14.9414Z" fill="white"/>
</svg>
