<svg width="24" height="24" viewBox="0 0 24 24" fill="none" xmlns="http://www.w3.org/2000/svg">
<path d="M17.7783 1.724C17.9765 1.724 18.1671 1.80306 18.3076 1.94275C20.9776 4.61482 22.4775 8.23762 22.4775 12.015C22.4775 15.7924 20.9776 19.4152 18.3076 22.0873C18.1705 22.2194 17.9882 22.2945 17.7979 22.2972C17.6445 22.3046 17.4923 22.2648 17.3623 22.183C17.2324 22.1012 17.13 21.9817 17.0703 21.8402C17.0106 21.6987 16.9963 21.5421 17.0283 21.392C17.0604 21.2418 17.1378 21.1051 17.25 21.0004C19.6315 18.6106 20.9687 15.3741 20.9688 12.0004C20.9688 8.62659 19.6314 5.39016 17.25 3.00037C17.1103 2.85984 17.0322 2.66921 17.0322 2.47107C17.0323 2.27305 17.1104 2.08322 17.25 1.94275C17.3904 1.80316 17.5803 1.72411 17.7783 1.724ZM14.6016 4.84607C14.7049 4.85006 14.8064 4.87527 14.8994 4.92029C14.9925 4.9653 15.0753 5.02928 15.1426 5.10779C16.9698 6.9361 17.9961 9.41549 17.9961 12.0004C17.996 14.5851 16.9697 17.0638 15.1426 18.892C15.0041 19.0333 14.815 19.1147 14.6172 19.1176C14.5181 19.1171 14.4203 19.0965 14.3291 19.058C14.2377 19.0194 14.1544 18.9628 14.085 18.892C13.9454 18.7515 13.8672 18.5617 13.8672 18.3636C13.8672 18.1656 13.9454 17.9758 14.085 17.8353C14.8515 17.0692 15.4592 16.1588 15.874 15.1576C16.2888 14.1566 16.5029 13.0839 16.5029 12.0004C16.5029 10.9167 16.2888 9.84331 15.874 8.84216C15.4592 7.84097 14.8515 6.93056 14.085 6.16443C14.0066 6.09728 13.9424 6.01511 13.8975 5.92224C13.8525 5.82925 13.8273 5.72761 13.8232 5.62439C13.8193 5.5211 13.8373 5.4179 13.875 5.32166C13.9127 5.22548 13.9699 5.13787 14.043 5.06482C14.1159 4.99195 14.2028 4.93451 14.2988 4.89685C14.395 4.85917 14.4983 4.84211 14.6016 4.84607ZM8.18262 5.2533C8.32126 5.24079 8.46043 5.26725 8.58496 5.32947C8.70954 5.39176 8.81447 5.48735 8.8877 5.60583C8.96091 5.72431 9 5.8611 9 6.00037V18.0004C8.9995 18.1387 8.96042 18.2743 8.8877 18.392C8.81496 18.5096 8.71137 18.6051 8.58789 18.6674C8.4834 18.7209 8.36741 18.7497 8.25 18.7504C8.08772 18.7504 7.92963 18.6973 7.7998 18.6L5.00293 16.5004H2.25C2.0512 16.5004 1.86036 16.4211 1.71973 16.2806C1.57918 16.1401 1.50012 15.9491 1.5 15.7504L1.5 8.25037C1.5 8.05145 1.57907 7.85977 1.71973 7.71912C1.86035 7.57863 2.05121 7.50037 2.25 7.50037H5.00293L7.7998 5.39978C7.91122 5.31622 8.04392 5.26581 8.18262 5.2533ZM5.7002 8.84998C5.57037 8.94734 5.41228 9.00037 5.25 9.00037H3L3 15.0004H5.25C5.41228 15.0004 5.57037 15.0524 5.7002 15.1498L7.5 16.5004L7.5 7.50037L5.7002 8.84998ZM11.4336 8.0697C11.6317 8.0697 11.8224 8.14779 11.9629 8.28748C12.4585 8.77314 12.8527 9.35256 13.123 9.99158C13.3934 10.6307 13.5346 11.3172 13.5381 12.0111C13.5415 12.705 13.4075 13.3928 13.1436 14.0345C12.8796 14.6763 12.4907 15.2597 12 15.7504C11.9225 15.8178 11.8314 15.8679 11.7334 15.8988C11.6354 15.9297 11.5319 15.9407 11.4297 15.9301C11.2331 15.9291 11.0449 15.8507 10.9053 15.7123C10.7656 15.5718 10.6866 15.382 10.6865 15.184C10.6865 14.9858 10.7656 14.7952 10.9053 14.6547C11.2544 14.3064 11.5317 13.8924 11.7207 13.4369C11.9096 12.9815 12.0068 12.4933 12.0068 12.0004C12.0068 11.5072 11.9097 11.0184 11.7207 10.5629C11.5317 10.1074 11.2544 9.69339 10.9053 9.34509C10.7656 9.20457 10.6865 9.01394 10.6865 8.8158C10.6866 8.61781 10.7657 8.4279 10.9053 8.28748C11.0457 8.1479 11.2356 8.06974 11.4336 8.0697Z" fill="white"/>
</svg>
