<svg width="20" height="20" viewBox="0 0 20 20" fill="none" xmlns="http://www.w3.org/2000/svg">
<path d="M18.75 10C18.75 12.3207 17.8281 14.5463 16.1872 16.1872C14.5462 17.8282 12.3206 18.75 10 18.75C9.83424 18.75 9.67527 18.6842 9.55806 18.567C9.44085 18.4498 9.375 18.2908 9.375 18.125C9.375 17.9593 9.44085 17.8003 9.55806 17.6831C9.67527 17.5659 9.83424 17.5 10 17.5C11.715 17.4997 13.3781 16.9116 14.7121 15.8337C16.0461 14.7558 16.9704 13.2533 17.3309 11.5766C17.6914 9.89987 17.4664 8.15025 16.6933 6.61933C15.9203 5.08842 14.6459 3.86869 13.0825 3.16346C11.5192 2.45823 9.76141 2.31009 8.1021 2.74374C6.4428 3.17738 4.98224 4.16662 3.96386 5.54656C2.94549 6.92651 2.43081 8.61379 2.50563 10.3272C2.58044 12.0406 3.24022 13.6766 4.375 14.9625V11.875C4.375 11.7093 4.44085 11.5503 4.55806 11.4331C4.67527 11.3159 4.83424 11.25 5 11.25C5.16576 11.25 5.32473 11.3159 5.44194 11.4331C5.55915 11.5503 5.625 11.7093 5.625 11.875V16.25C5.625 16.4158 5.55915 16.5748 5.44194 16.692C5.32473 16.8092 5.16576 16.875 5 16.875H0.625C0.45924 16.875 0.300269 16.8092 0.183058 16.692C0.065848 16.5748 0 16.4158 0 16.25C0 16.0843 0.065848 15.9253 0.183058 15.8081C0.300269 15.6909 0.45924 15.625 0.625 15.625H3.3C2.39507 14.5477 1.76327 13.268 1.45819 11.8945C1.1531 10.521 1.18372 9.09423 1.54746 7.7351C1.9112 6.37596 2.59732 5.12458 3.54764 4.08707C4.49797 3.04955 5.68447 2.2565 7.00654 1.77517C8.32862 1.29383 9.74726 1.1384 11.1422 1.32206C12.5371 1.50572 13.8672 2.02305 15.0196 2.83019C16.172 3.63732 17.1128 4.71046 17.7622 5.95859C18.4116 7.20673 18.7505 8.59306 18.75 10Z" fill="white"/>
</svg>
