<svg width="16" height="16" viewBox="0 0 16 16" fill="none" xmlns="http://www.w3.org/2000/svg">
<path d="M5.00019 14C6.64717 14 7.78974 12.0659 8.49238 8.08692C9.06367 4.85425 9.97773 3 11.0002 3C12.0227 3 12.9367 4.85425 13.508 8.08692C13.5194 8.15155 13.5435 8.2133 13.5787 8.26865C13.614 8.324 13.6598 8.37186 13.7136 8.40949C13.7674 8.44712 13.8281 8.4738 13.8921 8.48799C13.9562 8.50218 14.0225 8.5036 14.0871 8.49219C14.1517 8.48078 14.2135 8.45674 14.2688 8.42146C14.3242 8.38618 14.3721 8.34035 14.4097 8.28657C14.4473 8.2328 14.474 8.17214 14.4882 8.10805C14.5024 8.04397 14.5038 7.97772 14.4924 7.91308C13.7897 3.93408 12.6472 2 11.0002 2C9.35322 2 8.21064 3.93408 7.508 7.91308C6.93669 11.1458 6.02265 13 5.00019 13C3.97773 13 3.06369 11.1458 2.49238 7.91308C2.46933 7.78255 2.39537 7.66651 2.28677 7.59051C2.17816 7.51451 2.04382 7.48476 1.91328 7.50781C1.78274 7.53086 1.66671 7.60482 1.59071 7.71343C1.5147 7.82203 1.48495 7.95638 1.508 8.08692C2.21064 12.0659 3.35319 14 5.00019 14Z" fill="white"/>
</svg>
