<svg width="16" height="16" viewBox="0 0 16 16" fill="none" xmlns="http://www.w3.org/2000/svg">
<path d="M4.99995 14C5.08978 14.0001 5.17797 13.9759 5.25522 13.9301C5.33247 13.8842 5.39593 13.8184 5.43891 13.7395L10.9999 3.54419L13.561 8.2395C13.5924 8.29714 13.6349 8.34803 13.6861 8.38925C13.7372 8.43047 13.7959 8.46122 13.8589 8.47975C13.9219 8.49827 13.9879 8.5042 14.0532 8.4972C14.1185 8.49021 14.1818 8.47042 14.2394 8.43896C14.3559 8.37544 14.4423 8.26828 14.4797 8.14104C14.4982 8.07804 14.5042 8.01201 14.4972 7.94671C14.4902 7.88142 14.4704 7.81814 14.4389 7.7605L11.4389 2.2605C11.3919 2.18665 11.3271 2.12585 11.2503 2.08373C11.1736 2.04161 11.0875 2.01953 10.9999 2.01953C10.9124 2.01953 10.8263 2.04161 10.7496 2.08373C10.6728 2.12585 10.608 2.18665 10.561 2.2605L4.99995 12.4558L2.43891 7.7605C2.37539 7.64408 2.26823 7.55766 2.14099 7.52025C2.01375 7.48284 1.87687 7.49751 1.76045 7.56103C1.64403 7.62455 1.55761 7.73172 1.5202 7.85896C1.4828 7.98619 1.49747 8.12308 1.56098 8.2395L4.56098 13.7395C4.60397 13.8184 4.66743 13.8842 4.74468 13.9301C4.82193 13.9759 4.91012 14.0001 4.99995 14Z" fill="white"/>
</svg>
