<svg width="16" height="16" viewBox="0 0 16 16" fill="none" xmlns="http://www.w3.org/2000/svg">
<path d="M6.63443 1.13443C7.99215 0.864373 9.39941 1.0032 10.6784 1.53287C11.9574 2.06265 13.0508 2.95996 13.82 4.111C14.5891 5.26203 14.9996 6.61533 14.9997 7.99967C14.9997 9.85618 14.2626 11.6371 12.9499 12.9499C11.6371 14.2626 9.85618 14.9997 7.99967 14.9997C6.61533 14.9996 5.26203 14.5891 4.111 13.82C2.95996 13.0508 2.06265 11.9574 1.53287 10.6784C1.0032 9.39941 0.864373 7.99215 1.13443 6.63443C1.40453 5.27657 2.07148 4.02942 3.05045 3.05045C4.02942 2.07148 5.27657 1.40453 6.63443 1.13443ZM7.99967 1.99967C6.81312 1.99974 5.65325 2.35217 4.66666 3.01139C3.68003 3.67065 2.91082 4.60749 2.4567 5.70377C2.00259 6.80009 1.88342 8.00672 2.1149 9.17057C2.34641 10.3345 2.91836 11.4037 3.75748 12.2428C4.59658 13.0819 5.66591 13.6529 6.82975 13.8844C7.99358 14.1159 9.20023 13.9977 10.2965 13.5436C11.3928 13.0895 12.3297 12.3202 12.9889 11.3337C13.6482 10.347 13.9997 9.18636 13.9997 7.99967C13.9996 6.40856 13.3679 4.8826 12.2428 3.75748C11.1176 2.63226 9.59097 1.99967 7.99967 1.99967ZM10.4997 4.99771C10.6328 4.99771 10.761 5.05102 10.8551 5.14518C10.9491 5.23923 11.0015 5.3667 11.0016 5.49967C11.0016 5.63282 10.9493 5.76098 10.8551 5.85514L8.70963 7.99967L10.8551 10.1452C10.9018 10.1915 10.9391 10.2466 10.9645 10.3073C10.9898 10.3681 11.0025 10.4338 11.0026 10.4997C11.0026 10.5656 10.9898 10.6312 10.9645 10.6921C10.9391 10.753 10.902 10.8087 10.8551 10.8551C10.8087 10.902 10.753 10.9391 10.6921 10.9645C10.6312 10.9898 10.5656 11.0026 10.4997 11.0026C10.4338 11.0025 10.3681 10.9898 10.3073 10.9645C10.2466 10.9391 10.1915 10.9018 10.1452 10.8551L7.99967 8.70963L5.85514 10.8551C5.80865 10.902 5.75298 10.9391 5.69205 10.9645C5.63119 10.9898 5.56558 11.0026 5.49967 11.0026C5.43379 11.0025 5.3681 10.9898 5.30728 10.9645C5.24656 10.9391 5.19153 10.9018 5.14518 10.8551C5.09831 10.8087 5.06118 10.753 5.0358 10.6921C5.01047 10.6312 4.99674 10.5656 4.99674 10.4997C4.99679 10.4338 5.01047 10.3681 5.0358 10.3073C5.06118 10.2465 5.09843 10.1915 5.14518 10.1452L7.28971 7.99967L5.14518 5.85514C5.05102 5.76098 4.99771 5.63282 4.99771 5.49967C4.99782 5.36666 5.05111 5.23924 5.14518 5.14518C5.23924 5.05111 5.36666 4.99782 5.49967 4.99771C5.63282 4.99771 5.76098 5.05102 5.85514 5.14518L7.99967 7.28971L10.1452 5.14518C10.2392 5.05111 10.3667 4.99782 10.4997 4.99771Z" fill="#008184"/>
</svg>
