<svg width="32" height="32" viewBox="0 0 32 32" fill="none" xmlns="http://www.w3.org/2000/svg">
<path d="M15.8267 28.1721C9.62701 28.1721 2.93848 24.2835 2.93848 15.7506C2.93848 7.21777 9.62701 3.3291 15.8267 3.3291C19.2709 3.3291 22.4486 4.46237 24.804 6.52892C27.3594 8.79545 28.7149 11.9953 28.7149 15.7506C28.7149 19.506 27.3594 22.6835 24.804 24.9501C22.4441 27.0166 19.2487 28.1721 15.8267 28.1721Z" fill="url(#paint0_radial_4517_39334)"/>
<path d="M11.555 10.8711C10.624 10.8711 9.77734 11.6577 9.77734 12.9643C9.77734 14.2709 10.624 15.0553 11.555 15.0553C12.4883 15.0553 13.3327 14.2687 13.3327 12.9643C13.3327 11.6599 12.4972 10.8711 11.555 10.8711Z" fill="#422B0D"/>
<path d="M11.4772 11.742C11.1616 11.5909 10.7817 11.7242 10.6283 12.0397C10.5106 12.2864 10.5639 12.5819 10.7617 12.773C11.0772 12.9241 11.4572 12.7908 11.6105 12.4753C11.7283 12.2286 11.6749 11.9331 11.4772 11.742Z" fill="#896024"/>
<path d="M20.0882 10.8711C19.1572 10.8711 18.3105 11.6577 18.3105 12.9643C18.3105 14.2709 19.1572 15.0553 20.0882 15.0553C21.0193 15.0553 21.8659 14.2687 21.8659 12.9643C21.8659 11.6599 21.0193 10.8711 20.0882 10.8711Z" fill="#422B0D"/>
<path d="M20.0006 11.742C19.6851 11.5909 19.3051 11.7242 19.1518 12.0397C19.034 12.2864 19.0873 12.5819 19.2851 12.773C19.6006 12.9241 19.9806 12.7908 20.1339 12.4753C20.2517 12.2286 20.1984 11.9331 20.0006 11.742Z" fill="#896024"/>
<path d="M26.5529 8.36816C27.7373 10.2792 28.355 12.5546 28.355 15.0856C28.355 18.8409 26.9996 22.0185 24.4441 24.285C22.0887 26.3516 18.8889 27.5071 15.4668 27.5071C11.4537 27.5071 7.24505 25.8738 4.76074 22.4096C7.15173 26.3338 11.6493 28.1737 15.9113 28.1737C19.3333 28.1737 22.5331 27.0182 24.8886 24.9517C27.444 22.6851 28.7995 19.5075 28.7995 15.7522C28.7995 12.9212 28.0284 10.4058 26.5529 8.36816Z" fill="#EB8F00"/>
<path d="M24.4597 17.6907C24.1486 17.1285 23.473 16.8819 22.8731 17.1085C20.5932 17.7729 18.2289 18.104 15.8534 18.0929C13.478 18.104 11.1137 17.7729 8.83382 17.1085C8.23607 16.8819 7.56055 17.1263 7.24946 17.6863C6.94725 18.244 7.16502 18.8906 7.42056 19.4484C8.84715 22.5815 11.9914 24.457 15.8357 24.4681H15.8712C19.7155 24.4681 22.8597 22.5815 24.2886 19.4484C24.5419 18.8862 24.7619 18.2484 24.4597 17.6907Z" fill="#422B0D"/>
<path d="M19.4106 23.5816C19.3284 23.5061 19.244 23.4372 19.1595 23.3594C18.2529 22.5617 17.0796 22.1328 15.8708 22.1572C14.6264 22.1372 13.4154 22.5506 12.4443 23.3283C12.3599 23.3972 12.271 23.4638 12.1888 23.5505C12.1066 23.6372 12.0621 23.6994 12.0088 23.7727C13.2309 24.2505 14.5331 24.4949 15.8464 24.4882H15.8819C17.1396 24.4882 18.3862 24.2638 19.5639 23.8216C19.5195 23.7371 19.4684 23.6572 19.4106 23.5816Z" fill="#ED7770"/>
<path d="M22.8733 17.1094C20.5934 17.7739 18.2291 18.1049 15.8537 18.0938C13.4782 18.1049 11.1139 17.7739 8.83404 17.1094C8.23629 16.8828 7.56077 17.1272 7.24968 17.6872C7.20524 17.7716 7.16968 17.8605 7.14746 17.9516C7.22079 17.9894 7.30523 18.0272 7.40523 18.0672C10.0806 19.4071 13.0383 20.0871 16.0292 20.0515C18.8979 20.0848 21.7334 19.4604 24.3243 18.2294C24.4288 18.1849 24.5154 18.1427 24.5932 18.1027C24.5754 17.9583 24.5288 17.8161 24.4599 17.6872C24.1488 17.1272 23.4733 16.8806 22.8733 17.1094Z" fill="white"/>
<path d="M24.4685 17.6929C24.153 17.1307 23.4753 16.8819 22.8708 17.1085C20.591 17.7729 18.2266 18.104 15.8534 18.0929C13.478 18.104 11.1137 17.7729 8.83382 17.1085C8.23607 16.8819 7.56055 17.1263 7.24946 17.6863C6.94725 18.244 7.16502 18.8906 7.42056 19.4484C7.53388 19.6995 7.66054 19.9461 7.80054 20.1839C7.80054 20.1839 7.3339 18.4551 7.73832 17.9529C7.87609 17.7396 8.10719 17.6063 8.36051 17.5929C8.46495 17.5929 8.56716 17.6107 8.66716 17.6418C10.987 18.324 13.3936 18.6684 15.8134 18.664H15.8912C18.3111 18.6684 20.7176 18.324 23.0375 17.6418C23.1375 17.6107 23.2397 17.5929 23.3442 17.5929C23.5975 17.6063 23.8308 17.7396 23.9686 17.9529C24.3797 18.4551 23.9063 20.1906 23.9063 20.1906C24.0441 19.9528 24.1819 19.7084 24.2974 19.455C24.5508 18.8973 24.7707 18.2529 24.4685 17.6929Z" fill="#EB8F00"/>
<defs>
<radialGradient id="paint0_radial_4517_39334" cx="0" cy="0" r="1" gradientUnits="userSpaceOnUse" gradientTransform="translate(15.8267 15.7506) scale(12.657 12.657)">
<stop offset="0.5" stop-color="#FDE030"/>
<stop offset="0.92" stop-color="#F7C02B"/>
<stop offset="1" stop-color="#F4A223"/>
</radialGradient>
</defs>
</svg>
