<svg width="32" height="32" viewBox="0 0 32 32" fill="none" xmlns="http://www.w3.org/2000/svg">
<path d="M28 15C21.9346 15 17 10.0654 17 4C17 3.44775 16.5527 3 16 3C15.4473 3 15 3.44775 15 4C15 10.0654 10.0654 15 4 15C3.44727 15 3 15.4478 3 16C3 16.5522 3.44727 17 4 17C10.0654 17 15 21.9346 15 28C15 28.5522 15.4473 29 16 29C16.5527 29 17 28.5522 17 28C17 21.9346 21.9346 17 28 17C28.5527 17 29 16.5522 29 16C29 15.4478 28.5527 15 28 15Z" fill="#008184"/>
<path d="M24 7H25V8C25 8.55225 25.4473 9 26 9C26.5527 9 27 8.55225 27 8V7H28C28.5527 7 29 6.55225 29 6C29 5.44775 28.5527 5 28 5H27V4C27 3.44775 26.5527 3 26 3C25.4473 3 25 3.44775 25 4V5H24C23.4473 5 23 5.44775 23 6C23 6.55225 23.4473 7 24 7Z" fill="#008184"/>
<path d="M9 25H7V23C7 22.4477 6.55273 22 6 22C5.44727 22 5 22.4477 5 23V25H3C2.44727 25 2 25.4478 2 26C2 26.5522 2.44727 27 3 27H5V29C5 29.5522 5.44727 30 6 30C6.55273 30 7 29.5522 7 29V27H9C9.55273 27 10 26.5522 10 26C10 25.4478 9.55273 25 9 25Z" fill="#008184"/>
</svg>
