<svg width="16" height="16" viewBox="0 0 16 16" fill="none" xmlns="http://www.w3.org/2000/svg">
<path d="M13.3546 2.64486C13.2905 2.58059 13.2101 2.535 13.122 2.51298C13.0339 2.49095 12.9415 2.49333 12.8546 2.51986L1.35463 6.01986C1.25273 6.05151 1.16362 6.11493 1.10034 6.20084C1.03706 6.28676 1.00293 6.39066 1.00293 6.49736C1.00293 6.60406 1.03706 6.70797 1.10034 6.79388C1.16362 6.8798 1.25273 6.94321 1.35463 6.97486L7.11963 8.89486L9.03963 14.6549C9.07148 14.7527 9.13275 14.8384 9.21507 14.9001C9.2974 14.9618 9.39677 14.9967 9.49963 14.9999C9.60632 14.9991 9.70997 14.9643 9.79543 14.9004C9.8809 14.8365 9.94369 14.747 9.97463 14.6449L13.4746 3.14486C13.5018 3.05847 13.505 2.96632 13.4838 2.87825C13.4627 2.79019 13.418 2.70952 13.3546 2.64486ZM9.49963 12.8549L8.09463 8.63486L9.87463 6.85486C9.96878 6.76071 10.0217 6.63301 10.0217 6.49986C10.0217 6.36671 9.96878 6.23901 9.87463 6.14486C9.78048 6.05071 9.65278 5.99782 9.51963 5.99782C9.38648 5.99782 9.25878 6.05071 9.16463 6.14486L7.38463 7.92486L3.14463 6.49986L12.2496 3.74986L9.49963 12.8549Z" fill="white"/>
</svg>
