<svg width="24" height="24" viewBox="0 0 24 24" fill="none" xmlns="http://www.w3.org/2000/svg">
<path d="M21 11.25C16.4509 11.25 12.75 7.54907 12.75 3C12.75 2.58581 12.4145 2.25 12 2.25C11.5855 2.25 11.25 2.58581 11.25 3C11.25 7.54907 7.54907 11.25 3 11.25C2.58545 11.25 2.25 11.5858 2.25 12C2.25 12.4142 2.58545 12.75 3 12.75C7.54907 12.75 11.25 16.4509 11.25 21C11.25 21.4142 11.5855 21.75 12 21.75C12.4145 21.75 12.75 21.4142 12.75 21C12.75 16.4509 16.4509 12.75 21 12.75C21.4145 12.75 21.75 12.4142 21.75 12C21.75 11.5858 21.4145 11.25 21 11.25ZM12 17.25C11.0105 14.885 9.11499 12.9891 6.75 12C9.11499 11.0109 11.0105 9.11499 12 6.75C12.9895 9.11499 14.885 11.0109 17.25 12C14.885 12.9891 12.9895 14.885 12 17.25Z" fill="#008184"/>
<path d="M18 5.25H18.75V6C18.75 6.41419 19.0855 6.75 19.5 6.75C19.9145 6.75 20.25 6.41419 20.25 6V5.25H21C21.4145 5.25 21.75 4.91419 21.75 4.5C21.75 4.08581 21.4145 3.75 21 3.75H20.25V3C20.25 2.58581 19.9145 2.25 19.5 2.25C19.0855 2.25 18.75 2.58581 18.75 3V3.75H18C17.5855 3.75 17.25 4.08581 17.25 4.5C17.25 4.91419 17.5855 5.25 18 5.25Z" fill="#008184"/>
<path d="M6.75 18.75H5.25V17.25C5.25 16.8358 4.91455 16.5 4.5 16.5C4.08545 16.5 3.75 16.8358 3.75 17.25V18.75H2.25C1.83545 18.75 1.5 19.0858 1.5 19.5C1.5 19.9142 1.83545 20.25 2.25 20.25H3.75V21.75C3.75 22.1642 4.08545 22.5 4.5 22.5C4.91455 22.5 5.25 22.1642 5.25 21.75V20.25H6.75C7.16455 20.25 7.5 19.9142 7.5 19.5C7.5 19.0858 7.16455 18.75 6.75 18.75Z" fill="#008184"/>
</svg>
