<svg width="16" height="16" viewBox="0 0 16 16" fill="none" xmlns="http://www.w3.org/2000/svg">
<path d="M8.00031 14.998C9.85683 14.998 11.6373 14.2605 12.9501 12.9478C14.2628 11.635 15.0003 9.85456 15.0003 7.99805C15.0003 7.86544 14.9476 7.73826 14.8539 7.64449C14.7601 7.55073 14.6329 7.49805 14.5003 7.49805C14.3677 7.49805 14.2405 7.55073 14.1468 7.64449C14.053 7.73826 14.0003 7.86544 14.0003 7.99805C14 9.37007 13.5295 10.7006 12.6672 11.7678C11.8049 12.8349 10.6029 13.5744 9.26156 13.8628C7.92019 14.1512 6.52049 13.9712 5.29576 13.3527C4.07103 12.7343 3.09525 11.7147 2.53106 10.4641C1.96687 9.21342 1.84836 7.80717 2.19528 6.47973C2.5422 5.15229 3.33359 3.98384 4.43754 3.16914C5.5415 2.35444 6.89133 1.9427 8.26205 2.00255C9.63277 2.0624 10.9416 2.59022 11.9703 3.49805L9.50031 3.49805C9.36771 3.49805 9.24053 3.55073 9.14676 3.64449C9.05299 3.73826 9.00031 3.86544 9.00031 3.99805C9.00031 4.13066 9.05299 4.25783 9.14676 4.3516C9.24053 4.44537 9.36771 4.49805 9.50031 4.49805L13.0003 4.49805C13.1329 4.49805 13.2601 4.44537 13.3539 4.3516C13.4476 4.25783 13.5003 4.13066 13.5003 3.99805L13.5003 0.498047C13.5003 0.365439 13.4476 0.238262 13.3539 0.144494C13.2601 0.0507258 13.1329 -0.00195259 13.0003 -0.0019526C12.8677 -0.00195261 12.7405 0.0507258 12.6468 0.144494C12.553 0.238262 12.5003 0.365439 12.5003 0.498047L12.5003 2.63805C11.6384 1.9141 10.6147 1.40866 9.51592 1.1646C8.41713 0.920528 7.27568 0.945027 6.18837 1.23602C5.10106 1.52701 4.09996 2.0759 3.26995 2.83616C2.43994 3.59642 1.8055 4.54563 1.42043 5.60328C1.03536 6.66094 0.911015 7.79586 1.05794 8.9118C1.20487 10.0277 1.61874 11.0918 2.26444 12.0137C2.91015 12.9357 3.76866 13.6883 4.76717 14.2078C5.76568 14.7273 6.87474 14.9984 8.00031 14.998V14.998Z" fill="white"/>
</svg>
